<?xml version="1.0" encoding="UTF-8" standalone="no"?>
<!-- Created with Inkscape (http://www.inkscape.org/) -->

<svg
   width="256"
   height="256"
   viewBox="0 0 67.733332 67.733333"
   version="1.1"
   id="svg1"
   inkscape:version="1.4 (86a8ad7, 2024-10-11)"
   sodipodi:docname="logo_monochrome.svg"
   xmlns:inkscape="http://www.inkscape.org/namespaces/inkscape"
   xmlns:sodipodi="http://sodipodi.sourceforge.net/DTD/sodipodi-0.dtd"
   xmlns:xlink="http://www.w3.org/1999/xlink"
   xmlns="http://www.w3.org/2000/svg"
   xmlns:svg="http://www.w3.org/2000/svg">
  <sodipodi:namedview
     id="namedview1"
     pagecolor="#ffffff"
     bordercolor="#000000"
     borderopacity="0.25"
     inkscape:showpageshadow="2"
     inkscape:pageopacity="0.0"
     inkscape:pagecheckerboard="0"
     inkscape:deskcolor="#d1d1d1"
     inkscape:document-units="px"
     inkscape:zoom="1.2474957"
     inkscape:cx="142.68587"
     inkscape:cy="138.67784"
     inkscape:window-width="1366"
     inkscape:window-height="697"
     inkscape:window-x="-8"
     inkscape:window-y="-8"
     inkscape:window-maximized="1"
     inkscape:current-layer="layer1" />
  <defs
     id="defs1">
    <inkscape:path-effect
       effect="powerstroke"
       message=""
       id="path-effect35"
       is_visible="true"
       lpeversion="1.3"
       scale_width="1"
       interpolator_type="CentripetalCatmullRom"
       interpolator_beta="0.75"
       start_linecap_type="round"
       end_linecap_type="round"
       offset_points="67.128333,0.84227206"
       linejoin_type="spiro"
       miter_limit="4"
       not_jump="true"
       sort_points="true" />
    <inkscape:path-effect
       effect="simplify"
       id="path-effect34"
       is_visible="true"
       lpeversion="1.3"
       threshold="0.012"
       steps="1"
       smooth_angles="0"
       helper_size="0"
       simplify_individual_paths="false"
       simplify_just_coalesce="false"
       step="1" />
    <inkscape:path-effect
       effect="powerstroke"
       message=""
       id="path-effect33"
       is_visible="true"
       lpeversion="1.3"
       scale_width="1"
       interpolator_type="CentripetalCatmullRom"
       interpolator_beta="0.75"
       start_linecap_type="round"
       end_linecap_type="round"
       offset_points="77.871099,0.84227206"
       linejoin_type="spiro"
       miter_limit="4"
       not_jump="true"
       sort_points="true" />
    <inkscape:path-effect
       effect="simplify"
       id="path-effect32"
       is_visible="true"
       lpeversion="1.3"
       threshold="0.012"
       steps="1"
       smooth_angles="0"
       helper_size="0"
       simplify_individual_paths="false"
       simplify_just_coalesce="false"
       step="1" />
    <inkscape:path-effect
       effect="powerstroke"
       message=""
       id="path-effect19"
       is_visible="true"
       lpeversion="1.3"
       scale_width="1"
       interpolator_type="CentripetalCatmullRom"
       interpolator_beta="0.75"
       start_linecap_type="round"
       end_linecap_type="round"
       offset_points="13.70527,0.90819328"
       linejoin_type="spiro"
       miter_limit="4"
       not_jump="true"
       sort_points="true" />
    <inkscape:path-effect
       effect="simplify"
       id="path-effect18"
       is_visible="true"
       lpeversion="1.3"
       threshold="0.012"
       steps="1"
       smooth_angles="0"
       helper_size="0"
       simplify_individual_paths="false"
       simplify_just_coalesce="false"
       step="1" />
    <inkscape:path-effect
       effect="powerstroke"
       message=""
       id="path-effect10"
       is_visible="true"
       lpeversion="1.3"
       scale_width="1"
       interpolator_type="CentripetalCatmullRom"
       interpolator_beta="0.75"
       start_linecap_type="round"
       end_linecap_type="round"
       offset_points="13.726101,0.90819328"
       linejoin_type="spiro"
       miter_limit="4"
       not_jump="true"
       sort_points="true" />
    <inkscape:path-effect
       effect="simplify"
       id="path-effect9"
       is_visible="true"
       lpeversion="1.3"
       threshold="0.012"
       steps="1"
       smooth_angles="0"
       helper_size="0"
       simplify_individual_paths="false"
       simplify_just_coalesce="false"
       step="1" />
    <inkscape:path-effect
       effect="powerstroke"
       message=""
       id="path-effect8"
       is_visible="true"
       lpeversion="1.3"
       scale_width="1"
       interpolator_type="CentripetalCatmullRom"
       interpolator_beta="0.75"
       start_linecap_type="round"
       end_linecap_type="round"
       offset_points="2.8990687,0.90819328"
       linejoin_type="spiro"
       miter_limit="4"
       not_jump="true"
       sort_points="true" />
    <inkscape:path-effect
       effect="simplify"
       id="path-effect7"
       is_visible="true"
       lpeversion="1.3"
       threshold="0.012"
       steps="1"
       smooth_angles="0"
       helper_size="0"
       simplify_individual_paths="false"
       simplify_just_coalesce="false"
       step="1" />
    <inkscape:path-effect
       effect="powerstroke"
       message=""
       id="path-effect6"
       is_visible="true"
       lpeversion="1.3"
       scale_width="1"
       interpolator_type="CentripetalCatmullRom"
       interpolator_beta="0.75"
       start_linecap_type="round"
       end_linecap_type="round"
       offset_points="9.2366165,2.7245798"
       linejoin_type="spiro"
       miter_limit="4"
       not_jump="true"
       sort_points="true" />
    <inkscape:path-effect
       effect="simplify"
       id="path-effect5"
       is_visible="true"
       lpeversion="1.3"
       threshold="0.012"
       steps="1"
       smooth_angles="0"
       helper_size="0"
       simplify_individual_paths="false"
       simplify_just_coalesce="false"
       step="1" />
    <inkscape:path-effect
       effect="powerstroke"
       message=""
       id="path-effect3"
       is_visible="true"
       lpeversion="1.3"
       scale_width="1"
       interpolator_type="CentripetalCatmullRom"
       interpolator_beta="0.75"
       start_linecap_type="round"
       end_linecap_type="round"
       offset_points="9.467081,2.7245798"
       linejoin_type="spiro"
       miter_limit="4"
       not_jump="true"
       sort_points="true" />
    <inkscape:path-effect
       effect="simplify"
       id="path-effect2"
       is_visible="true"
       lpeversion="1.3"
       threshold="0.012"
       steps="1"
       smooth_angles="0"
       helper_size="0"
       simplify_individual_paths="false"
       simplify_just_coalesce="false"
       step="1" />
    <inkscape:path-effect
       effect="powerstroke"
       message=""
       id="path-effect31"
       is_visible="true"
       lpeversion="1.3"
       scale_width="1"
       interpolator_type="CentripetalCatmullRom"
       interpolator_beta="0.75"
       start_linecap_type="round"
       end_linecap_type="round"
       offset_points="31.479407,2.9695266"
       linejoin_type="spiro"
       miter_limit="4"
       not_jump="true"
       sort_points="true" />
    <inkscape:path-effect
       effect="simplify"
       id="path-effect30"
       is_visible="true"
       lpeversion="1.3"
       threshold="0.012"
       steps="1"
       smooth_angles="0"
       helper_size="0"
       simplify_individual_paths="false"
       simplify_just_coalesce="false"
       step="1" />
    <inkscape:path-effect
       effect="powerstroke"
       message=""
       id="path-effect29"
       is_visible="true"
       lpeversion="1.3"
       scale_width="1"
       interpolator_type="CentripetalCatmullRom"
       interpolator_beta="0.75"
       start_linecap_type="round"
       end_linecap_type="round"
       offset_points="5.8375153,2.9695266"
       linejoin_type="spiro"
       miter_limit="4"
       not_jump="true"
       sort_points="true" />
    <inkscape:path-effect
       effect="simplify"
       id="path-effect28"
       is_visible="true"
       lpeversion="1.3"
       threshold="0.012"
       steps="1"
       smooth_angles="0"
       helper_size="0"
       simplify_individual_paths="false"
       simplify_just_coalesce="false"
       step="1" />
    <inkscape:path-effect
       effect="powerstroke"
       message=""
       id="path-effect27"
       is_visible="true"
       lpeversion="1.3"
       scale_width="1"
       interpolator_type="CentripetalCatmullRom"
       interpolator_beta="0.75"
       start_linecap_type="round"
       end_linecap_type="round"
       offset_points="7.3267345,2.9695266"
       linejoin_type="spiro"
       miter_limit="4"
       not_jump="true"
       sort_points="true" />
    <inkscape:path-effect
       effect="simplify"
       id="path-effect26"
       is_visible="true"
       lpeversion="1.3"
       threshold="0.012"
       steps="1"
       smooth_angles="0"
       helper_size="0"
       simplify_individual_paths="false"
       simplify_just_coalesce="false"
       step="1" />
    <inkscape:path-effect
       effect="powerstroke"
       message=""
       id="path-effect25"
       is_visible="true"
       lpeversion="1.3"
       scale_width="1"
       interpolator_type="CentripetalCatmullRom"
       interpolator_beta="0.75"
       start_linecap_type="round"
       end_linecap_type="round"
       offset_points="6.713395,2.9695266"
       linejoin_type="spiro"
       miter_limit="4"
       not_jump="true"
       sort_points="true" />
    <inkscape:path-effect
       effect="simplify"
       id="path-effect24"
       is_visible="true"
       lpeversion="1.3"
       threshold="0.012"
       steps="1"
       smooth_angles="0"
       helper_size="0"
       simplify_individual_paths="false"
       simplify_just_coalesce="false"
       step="1" />
    <inkscape:path-effect
       effect="powerstroke"
       message=""
       id="path-effect23"
       is_visible="true"
       lpeversion="1.3"
       scale_width="1"
       interpolator_type="CentripetalCatmullRom"
       interpolator_beta="0.75"
       start_linecap_type="round"
       end_linecap_type="round"
       offset_points="18.56136,2.9695266"
       linejoin_type="spiro"
       miter_limit="4"
       not_jump="true"
       sort_points="true" />
    <inkscape:path-effect
       effect="simplify"
       id="path-effect22"
       is_visible="true"
       lpeversion="1.3"
       threshold="0.012"
       steps="1"
       smooth_angles="0"
       helper_size="0"
       simplify_individual_paths="false"
       simplify_just_coalesce="false"
       step="1" />
    <inkscape:path-effect
       effect="powerstroke"
       message=""
       id="path-effect17"
       is_visible="true"
       lpeversion="1.3"
       scale_width="1"
       interpolator_type="CentripetalCatmullRom"
       interpolator_beta="0.75"
       start_linecap_type="round"
       end_linecap_type="round"
       offset_points="9.7182708,2.9695266"
       linejoin_type="spiro"
       miter_limit="4"
       not_jump="true"
       sort_points="true" />
    <inkscape:path-effect
       effect="simplify"
       id="path-effect16"
       is_visible="true"
       lpeversion="1.3"
       threshold="0.012"
       steps="1"
       smooth_angles="0"
       helper_size="0"
       simplify_individual_paths="false"
       simplify_just_coalesce="false"
       step="1" />
    <inkscape:path-effect
       effect="powerstroke"
       message=""
       id="path-effect15"
       is_visible="true"
       lpeversion="1.3"
       scale_width="1"
       interpolator_type="CentripetalCatmullRom"
       interpolator_beta="0.75"
       start_linecap_type="round"
       end_linecap_type="round"
       offset_points="13.975939,2.9695266"
       linejoin_type="spiro"
       miter_limit="4"
       not_jump="true"
       sort_points="true" />
    <inkscape:path-effect
       effect="simplify"
       id="path-effect14"
       is_visible="true"
       lpeversion="1.3"
       threshold="0.012"
       steps="1"
       smooth_angles="0"
       helper_size="0"
       simplify_individual_paths="false"
       simplify_just_coalesce="false"
       step="1" />
    <inkscape:path-effect
       effect="powerstroke"
       message=""
       id="path-effect13"
       is_visible="true"
       lpeversion="1.3"
       scale_width="1"
       interpolator_type="CentripetalCatmullRom"
       interpolator_beta="0.75"
       start_linecap_type="round"
       end_linecap_type="round"
       offset_points="28.863517,2.9695266"
       linejoin_type="spiro"
       miter_limit="4"
       not_jump="true"
       sort_points="true" />
    <inkscape:path-effect
       effect="simplify"
       id="path-effect12"
       is_visible="true"
       lpeversion="1.3"
       threshold="0.012"
       steps="1"
       smooth_angles="0"
       helper_size="0"
       simplify_individual_paths="false"
       simplify_just_coalesce="false"
       step="1" />
    <inkscape:path-effect
       effect="bspline"
       id="path-effect11"
       is_visible="true"
       lpeversion="1.3"
       weight="33.333333"
       steps="2"
       helper_size="0"
       apply_no_weight="true"
       apply_with_weight="true"
       only_selected="false"
       uniform="false" />
    <linearGradient
       id="linearGradient1"
       inkscape:collect="always">
      <stop
         style="stop-color:#99ebff;stop-opacity:1;"
         offset="0"
         id="stop1" />
      <stop
         style="stop-color:#4cc2ff;stop-opacity:1;"
         offset="0.16"
         id="stop3" />
      <stop
         style="stop-color:#0091f8;stop-opacity:1;"
         offset="0.31999999"
         id="stop4" />
      <stop
         style="stop-color:#0078d4;stop-opacity:1;"
         offset="0.47999999"
         id="stop5" />
      <stop
         style="stop-color:#0067c0;stop-opacity:1;"
         offset="0.63999999"
         id="stop6" />
      <stop
         style="stop-color:#003e92;stop-opacity:1;"
         offset="0.80000001"
         id="stop7" />
      <stop
         style="stop-color:#001a68;stop-opacity:1;"
         offset="1"
         id="stop2" />
    </linearGradient>
    <inkscape:path-effect
       effect="fillet_chamfer"
       id="path-effect1"
       is_visible="true"
       lpeversion="1"
       nodesatellites_param="F,0,0,1,0,2.6458333,0,1 @ F,0,0,1,0,2.6458333,0,1 @ F,0,0,1,0,2.6458333,0,1 @ F,0,0,1,0,2.6458333,0,1"
       radius="10"
       unit="px"
       method="auto"
       mode="F"
       chamfer_steps="1"
       flexible="false"
       use_knot_distance="true"
       apply_no_radius="true"
       apply_with_radius="true"
       only_selected="false"
       hide_knots="false" />
    <inkscape:path-effect
       effect="fillet_chamfer"
       id="path-effect1-1"
       is_visible="true"
       lpeversion="1"
       nodesatellites_param="F,0,0,1,0,2.6458333,0,1 @ F,0,0,1,0,2.6458333,0,1 @ F,0,0,1,0,2.6458333,0,1 @ F,0,0,1,0,2.6458333,0,1"
       radius="10"
       unit="px"
       method="auto"
       mode="F"
       chamfer_steps="1"
       flexible="false"
       use_knot_distance="true"
       apply_no_radius="true"
       apply_with_radius="true"
       only_selected="false"
       hide_knots="false" />
    <inkscape:path-effect
       effect="fillet_chamfer"
       id="path-effect1-2"
       is_visible="true"
       lpeversion="1"
       nodesatellites_param="F,0,0,1,0,2.6458333,0,1 @ F,0,0,1,0,2.6458333,0,1 @ F,0,0,1,0,2.6458333,0,1 @ F,0,0,1,0,2.6458333,0,1"
       radius="10"
       unit="px"
       method="auto"
       mode="F"
       chamfer_steps="1"
       flexible="false"
       use_knot_distance="true"
       apply_no_radius="true"
       apply_with_radius="true"
       only_selected="false"
       hide_knots="false" />
    <inkscape:path-effect
       effect="fillet_chamfer"
       id="path-effect1-19"
       is_visible="true"
       lpeversion="1"
       nodesatellites_param="F,0,0,1,0,2.6458333,0,1 @ F,0,0,1,0,2.6458333,0,1 @ F,0,0,1,0,2.6458333,0,1 @ F,0,0,1,0,2.6458333,0,1"
       radius="10"
       unit="px"
       method="auto"
       mode="F"
       chamfer_steps="1"
       flexible="false"
       use_knot_distance="true"
       apply_no_radius="true"
       apply_with_radius="true"
       only_selected="false"
       hide_knots="false" />
    <clipPath
       clipPathUnits="userSpaceOnUse"
       id="clipPath13-6">
      <path
         id="path13-0"
         style="fill:url(#linearGradient13-2);stroke:none;stroke-width:1.95678;stroke-opacity:1;paint-order:stroke fill markers"
         d="m 52.094022,36.96492 c 0,11.628889 -9.427077,21.055966 -21.055966,21.055966 -11.628889,0 -21.055966,-9.427077 -21.055966,-21.055966 0,-11.628889 20.744026,-30.1022332 20.744026,-30.1022332 0,0 21.367906,18.4733442 21.367906,30.1022332 z"
         sodipodi:nodetypes="ssscs"
         transform="matrix(1.3521379,0,0,1.3521379,-8.1006012,-10.68119)"
         inkscape:path-effect="#path-effect1-19-0" />
    </clipPath>
    <linearGradient
       inkscape:collect="always"
       xlink:href="#linearGradient1"
       id="linearGradient13-2"
       gradientUnits="userSpaceOnUse"
       x1="14.70962"
       y1="19.724024"
       x2="47.365788"
       y2="46.168465" />
    <inkscape:path-effect
       effect="fillet_chamfer"
       id="path-effect1-19-0"
       is_visible="true"
       lpeversion="1"
       nodesatellites_param="F,0,0,1,0,2.6458333,0,1 @ F,0,0,1,0,2.6458333,0,1 @ F,0,0,1,0,2.6458333,0,1 @ F,0,0,1,0,2.6458333,0,1"
       radius="10"
       unit="px"
       method="auto"
       mode="F"
       chamfer_steps="1"
       flexible="false"
       use_knot_distance="true"
       apply_no_radius="true"
       apply_with_radius="true"
       only_selected="false"
       hide_knots="false" />
    <clipPath
       clipPathUnits="userSpaceOnUse"
       id="clipPath11-4">
      <path
         id="path11-4"
         style="fill:url(#linearGradient13-2);stroke:none;stroke-width:1.95678;stroke-opacity:1;paint-order:stroke fill markers"
         d="m 52.094022,36.96492 c 0,11.628889 -9.427077,21.055966 -21.055966,21.055966 -11.628889,0 -21.055966,-9.427077 -21.055966,-21.055966 0,-11.628889 20.744026,-30.1022332 20.744026,-30.1022332 0,0 21.367906,18.4733442 21.367906,30.1022332 z"
         sodipodi:nodetypes="ssscs"
         transform="matrix(1.3521379,0,0,1.3521379,-8.1006012,-10.68119)"
         inkscape:path-effect="#path-effect1-1-6" />
    </clipPath>
    <inkscape:path-effect
       effect="fillet_chamfer"
       id="path-effect1-1-6"
       is_visible="true"
       lpeversion="1"
       nodesatellites_param="F,0,0,1,0,2.6458333,0,1 @ F,0,0,1,0,2.6458333,0,1 @ F,0,0,1,0,2.6458333,0,1 @ F,0,0,1,0,2.6458333,0,1"
       radius="10"
       unit="px"
       method="auto"
       mode="F"
       chamfer_steps="1"
       flexible="false"
       use_knot_distance="true"
       apply_no_radius="true"
       apply_with_radius="true"
       only_selected="false"
       hide_knots="false" />
    <clipPath
       clipPathUnits="userSpaceOnUse"
       id="clipPath11-3">
      <path
         id="path11-5"
         style="fill:url(#linearGradient13-2);stroke:none;stroke-width:1.95678;stroke-opacity:1;paint-order:stroke fill markers"
         d="m 52.094022,36.96492 c 0,11.628889 -9.427077,21.055966 -21.055966,21.055966 -11.628889,0 -21.055966,-9.427077 -21.055966,-21.055966 0,-11.628889 20.744026,-30.1022332 20.744026,-30.1022332 0,0 21.367906,18.4733442 21.367906,30.1022332 z"
         sodipodi:nodetypes="ssscs"
         transform="matrix(1.3521379,0,0,1.3521379,-8.1006012,-10.68119)"
         inkscape:path-effect="#path-effect1-1-1" />
    </clipPath>
    <inkscape:path-effect
       effect="fillet_chamfer"
       id="path-effect1-1-1"
       is_visible="true"
       lpeversion="1"
       nodesatellites_param="F,0,0,1,0,2.6458333,0,1 @ F,0,0,1,0,2.6458333,0,1 @ F,0,0,1,0,2.6458333,0,1 @ F,0,0,1,0,2.6458333,0,1"
       radius="10"
       unit="px"
       method="auto"
       mode="F"
       chamfer_steps="1"
       flexible="false"
       use_knot_distance="true"
       apply_no_radius="true"
       apply_with_radius="true"
       only_selected="false"
       hide_knots="false" />
    <filter
       style="color-interpolation-filters:sRGB;"
       inkscape:label="Drop Shadow"
       id="filter219"
       x="-0.048229111"
       y="-0.056987434"
       width="1.1090179"
       height="1.1288153">
      <feFlood
         result="flood"
         in="SourceGraphic"
         flood-opacity="1.000000"
         flood-color="rgb(0,0,0)"
         id="feFlood218" />
      <feGaussianBlur
         result="blur"
         in="SourceGraphic"
         stdDeviation="0.800000"
         id="feGaussianBlur218" />
      <feOffset
         result="offset"
         in="blur"
         dx="0.500000"
         dy="0.500000"
         id="feOffset218" />
      <feComposite
         result="comp1"
         operator="in"
         in="flood"
         in2="offset"
         id="feComposite218" />
      <feComposite
         result="comp2"
         operator="over"
         in="SourceGraphic"
         in2="comp1"
         id="feComposite219" />
    </filter>
    <filter
       style="color-interpolation-filters:sRGB;"
       inkscape:label="Drop Shadow"
       id="filter221"
       x="-0.023215351"
       y="-0.036731706"
       width="1.0524764"
       height="1.083029">
      <feFlood
         result="flood"
         in="SourceGraphic"
         flood-opacity="1.000000"
         flood-color="rgb(0,0,0)"
         id="feFlood219" />
      <feGaussianBlur
         result="blur"
         in="SourceGraphic"
         stdDeviation="0.800000"
         id="feGaussianBlur219" />
      <feOffset
         result="offset"
         in="blur"
         dx="0.500000"
         dy="0.500000"
         id="feOffset219" />
      <feComposite
         result="comp1"
         operator="in"
         in="flood"
         in2="offset"
         id="feComposite220" />
      <feComposite
         result="comp2"
         operator="over"
         in="SourceGraphic"
         in2="comp1"
         id="feComposite221" />
    </filter>
    <filter
       style="color-interpolation-filters:sRGB;"
       inkscape:label="Drop Shadow"
       id="filter223"
       x="-0.02655905"
       y="-0.027919661"
       width="1.0600345"
       height="1.0631101">
      <feFlood
         result="flood"
         in="SourceGraphic"
         flood-opacity="1.000000"
         flood-color="rgb(0,0,0)"
         id="feFlood221" />
      <feGaussianBlur
         result="blur"
         in="SourceGraphic"
         stdDeviation="0.800000"
         id="feGaussianBlur221" />
      <feOffset
         result="offset"
         in="blur"
         dx="0.500000"
         dy="0.500000"
         id="feOffset221" />
      <feComposite
         result="comp1"
         operator="in"
         in="flood"
         in2="offset"
         id="feComposite222" />
      <feComposite
         result="comp2"
         operator="over"
         in="SourceGraphic"
         in2="comp1"
         id="feComposite223" />
    </filter>
  </defs>
  <g
     inkscape:label="Layer 1"
     inkscape:groupmode="layer"
     id="layer1">
    <path
       style="opacity:1;fill:#000000;stroke:none;stroke-width:2.64584;stroke-opacity:1;paint-order:stroke fill markers"
       d="m 55.985213,38.387837 c -0.298532,0.0069 -0.601337,0.02161 -0.908989,0.04496 -0.614024,0.04657 -1.24365,0.126873 -1.885673,0.243396 -0.647036,0.11741 -1.303894,0.270926 -1.969389,0.461987 -0.674969,0.193773 -1.355194,0.425293 -2.039668,0.694015 -0.678204,0.266266 -1.357345,0.567829 -2.037602,0.904854 -0.691987,0.342857 -1.381754,0.720602 -2.069124,1.13223 -0.693973,0.415613 -1.382764,0.864327 -2.066541,1.345138 l -0.08992,0.06511 -0.0026,0.0021 c -0.0314,0.02301 -0.06334,0.04647 -0.09302,0.06821 -0.03222,0.02378 -0.06468,0.04784 -0.09509,0.07028 -0.03215,0.02391 -0.06479,0.04776 -0.09508,0.07028 -0.03209,0.02403 -0.06439,0.0482 -0.09457,0.0708 -0.03202,0.02416 -0.06449,0.04863 -0.09457,0.07131 -0.03194,0.02428 -0.06408,0.04906 -0.09405,0.07183 -0.03187,0.02439 -0.06367,0.04898 -0.09354,0.07183 -0.03179,0.02451 -0.06377,0.04889 -0.09353,0.07183 -0.03172,0.02463 -0.06387,0.04932 -0.09354,0.07235 -0.03164,0.02474 -0.06345,0.04975 -0.09302,0.07286 -0.03156,0.02485 -0.06355,0.04966 -0.09302,0.07286 -0.03148,0.02497 -0.06313,0.05009 -0.0925,0.07338 -0.0314,0.02508 -0.06271,0.05052 -0.09199,0.0739 -0.03131,0.02519 -0.0628,0.05043 -0.09198,0.0739 -0.03123,0.0253 -0.06238,0.05086 -0.09147,0.07441 -0.03115,0.02541 -0.06248,0.05077 -0.09147,0.07441 -0.03106,0.02552 -0.06257,0.0512 -0.09147,0.07493 -0.03098,0.02562 -0.06163,0.05111 -0.09043,0.07493 -0.0309,0.02573 -0.06224,0.05154 -0.09095,0.07545 -0.03081,0.02584 -0.06181,0.05197 -0.09043,0.07596 -0.03073,0.02594 -0.06139,0.05188 -0.08992,0.07597 -0.03064,0.02605 -0.06148,0.05231 -0.08992,0.07648 -0.03055,0.02615 -0.06105,0.05222 -0.0894,0.07648 -0.03047,0.02626 -0.06114,0.05265 -0.0894,0.077 -0.03038,0.02636 -0.06071,0.05256 -0.08888,0.077 -0.03029,0.02646 -0.06029,0.05299 -0.08837,0.07751 -0.03021,0.02657 -0.06089,0.05342 -0.08888,0.07803 -0.03012,0.02667 -0.05995,0.05333 -0.08785,0.07803 -0.03003,0.02677 -0.06004,0.05325 -0.08785,0.07803 -0.02995,0.02687 -0.06013,0.05419 -0.08785,0.07906 -0.02986,0.02698 -0.0597,0.05359 -0.08733,0.07855 -0.02977,0.02708 -0.05927,0.05402 -0.08682,0.07906 -0.02969,0.02718 -0.05936,0.05445 -0.08682,0.07958 -0.0296,0.02728 -0.05945,0.05488 -0.08682,0.0801 -0.02951,0.02738 -0.05902,0.05428 -0.0863,0.07958 -0.02942,0.02748 -0.05859,0.05523 -0.08578,0.08062 -0.02934,0.02758 -0.05868,0.05515 -0.08578,0.08061 -0.02925,0.02768 -0.05877,0.05507 -0.08578,0.08062 -0.02916,0.02777 -0.05783,0.0555 -0.08475,0.08113 -0.02908,0.02787 -0.05843,0.05593 -0.08527,0.08165 -0.02899,0.02797 -0.05801,0.05585 -0.08475,0.08165 -0.02891,0.02807 -0.05758,0.05629 -0.08423,0.08217 -0.02882,0.02817 -0.05767,0.05621 -0.08423,0.08217 -0.02873,0.02827 -0.05724,0.05613 -0.08372,0.08217 -0.02865,0.02837 -0.05733,0.05656 -0.08372,0.08268 -0.02856,0.02846 -0.05691,0.057 -0.0832,0.0832 -0.02848,0.02856 -0.057,0.05692 -0.0832,0.0832 -0.02839,0.02866 -0.05657,0.05736 -0.08268,0.08372 -0.02831,0.02876 -0.05666,0.05729 -0.08268,0.08371 -0.02823,0.02886 -0.05624,0.05773 -0.08217,0.08423 -0.02815,0.02896 -0.05581,0.05766 -0.08165,0.08423 -0.02806,0.02906 -0.05642,0.0581 -0.08217,0.08475 -0.02798,0.02916 -0.05549,0.05803 -0.08113,0.08475 -0.0279,0.02926 -0.05558,0.05848 -0.08113,0.08527 -0.02782,0.02937 -0.05568,0.05841 -0.08113,0.08527 -0.02775,0.02947 -0.05526,0.05885 -0.08062,0.08578 -0.02767,0.02957 -0.05484,0.05879 -0.0801,0.08578 -0.02759,0.02968 -0.05494,0.05925 -0.0801,0.0863 -0.02752,0.02979 -0.05504,0.05918 -0.0801,0.0863 -0.02745,0.0299 -0.05463,0.05965 -0.07958,0.08682 -0.02738,0.03001 -0.05422,0.05959 -0.07906,0.08682 -0.02732,0.03013 -0.05433,0.05954 -0.07906,0.08682 -0.02726,0.03025 -0.05445,0.06053 -0.07906,0.08785 -0.0272,0.03038 -0.05353,0.05998 -0.07803,0.08733 -0.02715,0.03051 -0.05418,0.06047 -0.07855,0.08785 -0.02711,0.03066 -0.05379,0.06097 -0.07803,0.08837 -0.02708,0.03081 -0.05342,0.06096 -0.07751,0.08837 -0.02707,0.03099 -0.05358,0.06098 -0.07752,0.08837 -0.02707,0.03119 -0.05325,0.06153 -0.077,0.08888 -0.02711,0.03143 -0.05347,0.06213 -0.077,0.0894 -0.0272,0.03172 -0.05321,0.06227 -0.07648,0.0894 l -0.02325,0.02687 c -0.01853,0.02175 -0.03681,0.04327 -0.05323,0.06253 -0.02631,0.03106 -0.05214,0.0618 -0.07596,0.08992 -0.02625,0.03119 -0.05226,0.06176 -0.07596,0.08992 -0.02619,0.03131 -0.05186,0.06225 -0.07545,0.09043 -0.02615,0.03145 -0.05199,0.06223 -0.07545,0.09043 -0.02611,0.0316 -0.05161,0.06274 -0.07493,0.09095 -0.02608,0.03176 -0.05176,0.06275 -0.07493,0.09095 -0.02607,0.03194 -0.05141,0.0633 -0.07441,0.09147 -0.02609,0.03216 -0.05127,0.06334 -0.07493,0.0925 -0.845051,1.044774 -1.609523,2.098678 -2.299601,3.140376 -0.773601,1.167779 -1.459174,2.32809 -2.066541,3.455603 -0.694134,1.288622 -1.292193,2.546328 -1.808158,3.743958 -0.607859,1.411001 -1.109618,2.756109 -1.524455,3.998205 -0.371321,1.111898 -0.659886,2.125822 -0.915189,3.083016 0.684121,0.136612 1.374742,0.255014 2.075325,0.342615 2.002505,0.250395 5.291639,0.250391 7.294128,0 13.154619,-1.644852 23.579954,-12.070718 25.224817,-25.225333 0.119911,-0.958978 0.150543,-2.214973 0.126607,-3.477307 -0.212063,-0.03494 -0.4311,-0.07004 -0.666626,-0.104387 -0.75279,-0.109771 -1.549422,-0.201292 -2.379183,-0.263033 -0.736253,-0.05478 -1.504605,-0.08628 -2.298051,-0.08475 -0.0095,1.8e-5 -0.01945,-2.38e-4 -0.02894,-5.17e-4 -0.288736,-0.0085 -0.582552,-0.0095 -0.881083,-0.0026 z"
       id="path37" />
    <path
       style="opacity:1;fill:#000000;stroke:none;stroke-width:2.64584;stroke-opacity:1;paint-order:stroke fill markers"
       d="m 57.22493,25.340055 c -0.06645,0.0086 -0.133728,0.01752 -0.197921,0.02584 -0.07862,0.01065 -0.158571,0.02175 -0.234611,0.03204 -0.0786,0.0111 -0.158253,0.02237 -0.234094,0.03307 -0.07856,0.01155 -0.157924,0.023 -0.233577,0.03411 -0.07851,0.01199 -0.158104,0.02414 -0.233578,0.03566 -0.07845,0.01244 -0.157758,0.02528 -0.23306,0.03721 -0.07839,0.01288 -0.157925,0.02591 -0.233061,0.03824 -0.07832,0.01332 -0.157568,0.02654 -0.232544,0.03927 -0.07824,0.01376 -0.157208,0.02768 -0.232027,0.04082 -0.07815,0.01419 -0.156845,0.02883 -0.231511,0.04237 -0.07807,0.01463 -0.156995,0.02946 -0.23151,0.04341 -0.07798,0.01506 -0.156627,0.03009 -0.230994,0.04444 -0.07788,0.01549 -0.156255,0.03124 -0.230477,0.04599 -0.07778,0.01592 -0.156399,0.03188 -0.230477,0.04703 -0.07768,0.01635 -0.156025,0.03251 -0.22996,0.04806 -0.07757,0.01678 -0.15565,0.03366 -0.229443,0.04961 -0.07746,0.0172 -0.155274,0.03482 -0.228927,0.05116 -0.07735,0.01763 -0.155414,0.03546 -0.228926,0.05219 -0.07724,0.01805 -0.155037,0.0361 -0.22841,0.05323 -0.07713,0.01847 -0.154657,0.03725 -0.227893,0.05478 -0.07701,0.01889 -0.15428,0.03738 -0.227376,0.05529 -0.07689,0.0193 -0.154417,0.03906 -0.227377,0.05736 -0.07677,0.01972 -0.154039,0.0397 -0.226859,0.05839 -0.07665,0.02013 -0.15366,0.04035 -0.226343,0.05943 -0.07652,0.02055 -0.153281,0.04099 -0.225826,0.06046 -0.07639,0.02096 -0.152902,0.04216 -0.225309,0.06201 -0.07627,0.02137 -0.15304,0.04281 -0.22531,0.06304 -0.07614,0.02178 -0.152658,0.04346 -0.224792,0.06408 -0.076,0.02219 -0.152281,0.04463 -0.224276,0.06563 -0.07587,0.02259 -0.152421,0.04528 -0.224275,0.06666 -0.07574,0.02299 -0.151527,0.04593 -0.223243,0.0677 -0.0756,0.0234 -0.151665,0.04711 -0.223242,0.06925 -0.07546,0.0238 -0.151285,0.04776 -0.222725,0.07028 -0.07532,0.0242 -0.150913,0.04842 -0.222209,0.07131 -0.07519,0.0246 -0.150532,0.04908 -0.221692,0.07235 -0.07504,0.02499 -0.150158,0.05026 -0.221175,0.0739 -0.0749,0.02539 -0.150301,0.05092 -0.221175,0.07493 -0.07476,0.02578 -0.149926,0.05158 -0.220658,0.07596 -0.07461,0.02618 -0.149552,0.05225 -0.220142,0.077 -0.07446,0.02657 -0.149176,0.05343 -0.219625,0.07855 -0.07432,0.02696 -0.148806,0.0541 -0.219108,0.07958 -0.07417,0.02734 -0.14843,0.05476 -0.218591,0.08061 -0.07402,0.02773 -0.148061,0.05543 -0.218075,0.08165 -0.07387,0.02811 -0.148207,0.0561 -0.218074,0.08268 -0.07371,0.0285 -0.14732,0.05729 -0.217041,0.08423 -0.07356,0.02888 -0.147468,0.05796 -0.217041,0.08527 -0.07341,0.02926 -0.147099,0.05864 -0.216525,0.0863 -0.07325,0.02964 -0.146728,0.05931 -0.216007,0.08733 -0.07309,0.03002 -0.146363,0.05999 -0.215491,0.08837 -0.07294,0.03039 -0.145996,0.06067 -0.214974,0.0894 -0.07278,0.03077 -0.14563,0.06186 -0.214457,0.09095 -0.07261,0.03114 -0.145263,0.06203 -0.21394,0.09147 -0.07245,0.03151 -0.145418,0.06323 -0.213941,0.09302 -0.07229,0.03189 -0.144537,0.06391 -0.212907,0.09405 -0.07213,0.03225 -0.144687,0.06459 -0.212907,0.09509 -0.07196,0.03262 -0.143811,0.06528 -0.211873,0.09612 -0.0718,0.03299 -0.143968,0.06596 -0.211873,0.09715 -0.07163,0.03335 -0.143091,0.06665 -0.21084,0.09818 -0.07146,0.03372 -0.143245,0.06786 -0.21084,0.09974 -0.07129,0.03408 -0.142888,0.06803 -0.210323,0.100253 -0.07112,0.03444 -0.142012,0.06872 -0.20929,0.101285 -0.07095,0.03479 -0.142173,0.06993 -0.209289,0.102837 -0.07078,0.03515 -0.141818,0.07011 -0.208773,0.103352 -0.0706,0.03551 -0.141463,0.07132 -0.208256,0.104904 -0.07043,0.03586 -0.14059,0.07202 -0.207222,0.105936 -0.07025,0.03622 -0.140756,0.0722 -0.207223,0.106454 -0.07008,0.03657 -0.140403,0.07342 -0.206706,0.108003 -0.0699,0.03692 -0.139531,0.0736 -0.205672,0.108521 -0.06972,0.03727 -0.139699,0.07482 -0.205672,0.110071 -0.06954,0.03761 -0.139347,0.07501 -0.205155,0.110587 -0.06936,0.03796 -0.138486,0.07623 -0.204122,0.112138 -0.06918,0.0383 -0.138654,0.07642 -0.204122,0.112655 -0.069,0.03865 -0.138303,0.07764 -0.203605,0.114205 -0.06881,0.03899 -0.137443,0.07783 -0.202572,0.114721 -0.06863,0.03933 -0.137612,0.07854 -0.202572,0.115756 -0.06844,0.03967 -0.136751,0.07977 -0.201538,0.117305 -0.06825,0.04 -0.136411,0.07997 -0.201021,0.117822 -0.06807,0.04034 -0.136582,0.08068 -0.201021,0.118856 -0.06788,0.04067 -0.135726,0.08139 -0.199988,0.119889 -0.06769,0.04101 -0.135386,0.08211 -0.199471,0.120923 -0.0675,0.04134 -0.135046,0.08283 -0.198954,0.121957 -0.0673,0.04167 -0.134708,0.08303 -0.198438,0.122473 -0.06711,0.042 -0.13437,0.08427 -0.197921,0.124023 -0.06692,0.04232 -0.134031,0.08447 -0.197404,0.12454 -0.06672,0.04265 -0.13318,0.0852 -0.19637,0.125574 -0.06653,0.04297 -0.133363,0.08644 -0.196371,0.127124 -0.06633,0.0433 -0.132509,0.08664 -0.195336,0.127641 -0.06613,0.04361 -0.132179,0.08685 -0.194821,0.128158 -0.06593,0.04394 -0.132361,0.0881 -0.19482,0.129707 -0.06573,0.04425 -0.131517,0.08832 -0.193786,0.130225 -0.06553,0.04457 -0.13067,0.08956 -0.192753,0.131775 -0.06533,0.04489 -0.130858,0.08978 -0.192754,0.132292 -0.06513,0.0452 -0.130527,0.09051 -0.192236,0.133325 -0.06492,0.04551 -0.129683,0.09073 -0.191203,0.133842 -0.06472,0.04582 -0.129358,0.09198 -0.190686,0.135392 -0.06451,0.04613 -0.129036,0.0922 -0.190169,0.135909 -0.06431,0.04644 -0.128708,0.09294 -0.189652,0.136943 -0.0641,0.04675 -0.128388,0.09316 -0.189136,0.137459 -0.06389,0.04705 -0.127547,0.09442 -0.188102,0.139009 -0.06368,0.04736 -0.127745,0.09465 -0.188103,0.139527 -0.06347,0.04766 -0.126908,0.0954 -0.187068,0.14056 -0.06326,0.04796 -0.12659,0.09614 -0.186552,0.141593 -0.06304,0.04826 -0.125753,0.09637 -0.185519,0.14211 -0.06283,0.04856 -0.125954,0.09712 -0.185518,0.143144 -0.06261,0.04885 -0.125122,0.09787 -0.184485,0.144177 -0.0624,0.04915 -0.124807,0.09811 -0.183968,0.144694 -0.06218,0.04944 -0.124494,0.09886 -0.183451,0.145728 -0.06196,0.04974 -0.12366,0.09961 -0.182418,0.146761 -0.06175,0.05003 -0.123866,0.09985 -0.182418,0.147278 -0.06153,0.05032 -0.123041,0.10061 -0.181384,0.148311 -0.0613,0.05061 -0.122731,0.101368 -0.180868,0.149345 -0.06108,0.05089 -0.121906,0.101611 -0.179834,0.149862 -0.06086,0.05118 -0.121596,0.102371 -0.179317,0.150895 -0.06064,0.05146 -0.12129,0.103134 -0.1788,0.151929 -0.06041,0.05174 -0.120985,0.103382 -0.178284,0.152445 -0.06019,0.05202 -0.120163,0.104147 -0.17725,0.153479 -0.05996,0.0523 -0.11986,0.104397 -0.176734,0.153996 -0.05973,0.05258 -0.119555,0.105164 -0.176216,0.155029 -0.0595,0.05286 -0.119255,0.105936 -0.1757,0.156063 -0.05927,0.05313 -0.118437,0.106189 -0.174666,0.156579 -0.05904,0.05341 -0.118138,0.106962 -0.17415,0.157614 -0.05881,0.05368 -0.117322,0.107219 -0.173116,0.158129 -0.05858,0.05395 -0.117541,0.107995 -0.173116,0.159164 -0.05835,0.05422 -0.116729,0.108255 -0.172083,0.15968 -0.05811,0.05449 -0.115911,0.109029 -0.171049,0.160714 -0.05787,0.05475 -0.115619,0.109294 -0.170532,0.16123 -0.05764,0.05502 -0.115327,0.110077 -0.170015,0.162264 -0.0574,0.05528 -0.115033,0.110858 -0.169499,0.163298 -0.05716,0.05554 -0.114224,0.110608 -0.168465,0.163297 -0.05693,0.0558 -0.113933,0.111909 -0.167949,0.164848 -0.05668,0.05606 -0.11313,0.112183 -0.166914,0.165365 -0.05644,0.05632 -0.112841,0.112453 -0.166399,0.165881 -0.0562,0.05658 -0.112553,0.113243 -0.165881,0.166915 -0.05596,0.05683 -0.111748,0.113516 -0.164848,0.167432 -0.05571,0.05709 -0.111462,0.114307 -0.164331,0.168465 -0.05547,0.05734 -0.111181,0.114588 -0.163814,0.168982 -0.05522,0.05759 -0.11038,0.114866 -0.162781,0.169498 -0.05498,0.05784 -0.109581,0.115663 -0.161747,0.170533 -0.05473,0.05809 -0.109297,0.116458 -0.161231,0.171565 -0.05448,0.05833 -0.10902,0.116229 -0.160713,0.171566 -0.05423,0.05858 -0.108741,0.117546 -0.160197,0.173116 -0.05398,0.05882 -0.107943,0.117313 -0.159164,0.173116 -0.05373,0.05906 -0.10715,0.118119 -0.158129,0.17415 -0.05347,0.0593 -0.106873,0.118406 -0.157614,0.174666 -0.05322,0.05954 -0.106599,0.119215 -0.157096,0.1757 -0.05296,0.05978 -0.105809,0.119508 -0.156063,0.176217 -0.05271,0.06002 -0.105536,0.119801 -0.155546,0.176733 -0.05245,0.06025 -0.104744,0.120611 -0.154512,0.177767 -0.05219,0.06049 -0.104475,0.120909 -0.153996,0.178284 -0.05194,0.06072 -0.103689,0.121207 -0.152962,0.1788 -0.05168,0.06095 -0.10342,0.122024 -0.152446,0.179834 -0.05142,0.06118 -0.102633,0.122323 -0.151412,0.180351 -0.05116,0.06141 -0.102366,0.122625 -0.150895,0.180867 -0.05089,0.06163 -0.101584,0.123448 -0.149862,0.181901 -0.05063,0.06186 -0.10132,0.123754 -0.149344,0.182418 -0.05037,0.06208 -0.10054,0.124061 -0.148312,0.182935 -0.0501,0.06231 -0.100274,0.124366 -0.147794,0.183451 -0.04983,0.06253 -0.0995,0.125197 -0.146761,0.184485 -0.04957,0.06275 -0.09924,0.124991 -0.146245,0.184485 -0.0493,0.06297 -0.09846,0.12582 -0.145211,0.185518 -0.04903,0.06318 -0.09768,0.126652 -0.144177,0.186552 -0.04876,0.0634 -0.09742,0.126449 -0.14366,0.186552 -0.04849,0.06361 -0.09717,0.127285 -0.143144,0.187585 -0.04822,0.06383 -0.0964,0.127605 -0.14211,0.188103 -0.04794,0.06404 -0.09563,0.127925 -0.141077,0.188619 -0.04767,0.06425 -0.09537,0.128245 -0.14056,0.189135 -0.04739,0.06445 -0.0946,0.129088 -0.139526,0.19017 -0.04712,0.06466 -0.09435,0.128897 -0.13901,0.190169 -0.04684,0.06487 -0.09358,0.129741 -0.137976,0.191203 -0.04656,0.06507 -0.09282,0.130069 -0.136942,0.191719 -0.04629,0.06528 -0.09257,0.130397 -0.136426,0.192237 -0.04601,0.06547 -0.0918,0.130729 -0.135392,0.192753 -0.04573,0.06568 -0.09156,0.131064 -0.134876,0.193269 -0.04544,0.06588 -0.09079,0.131916 -0.133842,0.194304 -0.04516,0.06607 -0.09003,0.131732 -0.132808,0.194303 -0.04488,0.06627 -0.08979,0.132591 -0.132292,0.195337 -0.04459,0.06647 -0.08903,0.13293 -0.131258,0.195854 -0.04431,0.06666 -0.08879,0.13327 -0.130741,0.19637 -0.04402,0.06685 -0.08803,0.133611 -0.129708,0.196887 -0.04374,0.06704 -0.08728,0.133442 -0.128675,0.196888 -0.04345,0.06723 -0.08652,0.134303 -0.12764,0.19792 -0.04316,0.06742 -0.08628,0.135168 -0.127124,0.198955 -0.04287,0.06761 -0.08553,0.134998 -0.126091,0.198954 -0.04258,0.06779 -0.08529,0.135351 -0.125574,0.199471 -0.04229,0.06798 -0.08454,0.135704 -0.12454,0.199988 -0.04199,0.06816 -0.08379,0.136058 -0.123506,0.200504 -0.0417,0.06834 -0.08304,0.136412 -0.122474,0.201022 -0.04141,0.06852 -0.08281,0.136772 -0.121956,0.201538 -0.04111,0.0687 -0.08206,0.137131 -0.120923,0.202055 -0.04082,0.06888 -0.08132,0.138008 -0.119889,0.203088 -0.04052,0.06906 -0.08109,0.137852 -0.119373,0.203088 -0.04022,0.06923 -0.08035,0.138221 -0.118339,0.203605 -0.03992,0.06941 -0.0796,0.138586 -0.117305,0.204122 -0.03962,0.06958 -0.07938,0.138954 -0.116789,0.204639 -0.03932,0.06976 -0.07812,0.139323 -0.115238,0.205155 -0.03902,0.06993 -0.0779,0.139176 -0.114722,0.205156 -0.03872,0.0701 -0.07767,0.140067 -0.114205,0.206189 -0.03841,0.07027 -0.07642,0.140444 -0.112655,0.206706 -0.03811,0.07043 -0.0762,0.140302 -0.112137,0.206705 -0.0378,0.0706 -0.07546,0.1412 -0.111105,0.20774 -0.0375,0.07077 -0.07473,0.141064 -0.110071,0.207739 -0.03719,0.07093 -0.07451,0.141447 -0.109554,0.208256 -0.03689,0.07109 -0.07326,0.141829 -0.108003,0.208773 -0.03658,0.07126 -0.07305,0.142218 -0.107487,0.209289 -0.03627,0.07142 -0.07232,0.142608 -0.106454,0.209807 -0.03596,0.07158 -0.07211,0.142999 -0.105936,0.210323 -0.03565,0.07174 -0.07086,0.142875 -0.104387,0.210323 -0.03534,0.0719 -0.07065,0.143788 -0.10387,0.211356 -0.03502,0.07206 -0.06993,0.14367 -0.102836,0.211357 -0.03471,0.07222 -0.0692,0.144067 -0.101802,0.211873 -0.0344,0.07238 -0.06848,0.143956 -0.100769,0.211874 -0.03408,0.07254 -0.06776,0.144875 -0.09974,0.212907 -0.03377,0.07269 -0.06755,0.144769 -0.09922,0.212906 -0.03345,0.07285 -0.06632,0.14518 -0.09767,0.213424 -0.03314,0.07301 -0.06612,0.145593 -0.09715,0.21394 -0.03282,0.07316 -0.0654,0.14601 -0.09612,0.214458 -0.03251,0.07332 -0.06469,0.145912 -0.09508,0.214457 -0.03219,0.07348 -0.06449,0.146335 -0.09457,0.214974 -0.03187,0.07364 -0.06326,0.146762 -0.09302,0.215491 -0.03155,0.0738 -0.06307,0.146676 -0.0925,0.21549 -0.03123,0.07396 -0.06184,0.147629 -0.09095,0.216525 -0.03092,0.07412 -0.06165,0.147551 -0.09043,0.216524 -0.0306,0.07428 -0.06095,0.147479 -0.0894,0.216524 -0.03028,0.07445 -0.06025,0.148447 -0.08837,0.217558 -0.02997,0.07462 -0.05955,0.148387 -0.08733,0.217558 -0.02965,0.0748 -0.05885,0.148334 -0.0863,0.217557 -0.02933,0.07498 -0.05867,0.149324 -0.08578,0.218592 -0.02902,0.07516 -0.05746,0.149288 -0.08423,0.218591 -0.02871,0.07536 -0.05678,0.149264 -0.0832,0.218591 -0.0284,0.07556 -0.05661,0.150288 -0.08268,0.219625 -0.0281,0.07578 -0.05542,0.150293 -0.08113,0.219625 -0.0278,0.07602 -0.05526,0.150319 -0.08062,0.219625 -0.0275,0.07627 -0.0546,0.150886 -0.07958,0.220141 -0.02722,0.07656 -0.05395,0.151487 -0.07855,0.220659 -0.02694,0.07689 -0.05279,0.15213 -0.077,0.221175 -0.02668,0.07727 -0.05269,0.152317 -0.07648,0.221175 -0.02645,0.07774 -0.0521,0.152592 -0.07545,0.221175 -0.02626,0.07833 -0.05155,0.153517 -0.07441,0.221692 l -0.02015,0.06201 c -0.01833,0.05552 -0.03673,0.110257 -0.05323,0.160197 -0.02507,0.07709 -0.04963,0.15238 -0.07235,0.222208 -0.02475,0.07731 -0.04896,0.152929 -0.07131,0.222726 -0.02443,0.07754 -0.04778,0.152978 -0.06976,0.222725 -0.02412,0.07779 -0.04763,0.153568 -0.06925,0.223242 -0.02382,0.07807 -0.04698,0.15367 -0.06821,0.223243 -0.02352,0.07839 -0.04633,0.154323 -0.06718,0.223758 -0.02323,0.07875 -0.0457,0.155024 -0.06615,0.224276 -0.0054,0.01866 -0.0102,0.03444 -0.0155,0.05271 2.707836,2.062861 5.792368,3.65593 9.140011,4.646228 0.256237,-0.950374 0.543294,-1.951794 0.908988,-3.046842 0.429271,-1.285315 0.949037,-2.679019 1.579232,-4.141866 0.534922,-1.241632 1.155424,-2.547227 1.876888,-3.886585 0.631286,-1.171917 1.345312,-2.379762 2.151806,-3.597196 0.719437,-1.086017 1.51769,-2.187084 2.402438,-3.280937 0.02451,-0.03021 0.04971,-0.06133 0.07751,-0.0956 0.02472,-0.03028 0.05023,-0.06155 0.07803,-0.0956 0.02489,-0.03031 0.05021,-0.06122 0.07803,-0.09508 0.02505,-0.03032 0.05069,-0.06138 0.07855,-0.09508 0.0252,-0.03031 0.05116,-0.06101 0.07906,-0.09457 0.02534,-0.03029 0.0511,-0.06115 0.07906,-0.09457 0.02547,-0.03026 0.05104,-0.06076 0.07906,-0.09405 0.0256,-0.03022 0.05149,-0.06088 0.07958,-0.09405 l 0.05529,-0.06511 c 0.0076,-0.0089 0.01522,-0.0177 0.0248,-0.02894 0.02507,-0.02923 0.05109,-0.05971 0.0801,-0.09353 0.02534,-0.02937 0.05168,-0.06001 0.08062,-0.09354 0.02557,-0.02945 0.05171,-0.05973 0.08062,-0.09302 0.02576,-0.02949 0.05223,-0.05941 0.08113,-0.0925 0.02593,-0.0295 0.05272,-0.06011 0.08165,-0.09302 0.02609,-0.0295 0.05268,-0.05923 0.08165,-0.09198 0.02623,-0.02948 0.05263,-0.05938 0.08165,-0.09198 0.02637,-0.02945 0.0536,-0.05951 0.08268,-0.09198 0.0265,-0.02941 0.05302,-0.05912 0.08216,-0.09147 0.02663,-0.02937 0.05398,-0.05925 0.0832,-0.09147 0.02675,-0.02932 0.05339,-0.05885 0.08268,-0.09095 0.02686,-0.02926 0.05434,-0.05896 0.08372,-0.09095 0.02698,-0.0292 0.05426,-0.05908 0.08371,-0.09095 0.02709,-0.02914 0.05418,-0.05815 0.08372,-0.08992 0.0272,-0.02908 0.05461,-0.05878 0.08423,-0.09043 0.02731,-0.02901 0.05504,-0.05785 0.08475,-0.0894 0.02742,-0.02894 0.05495,-0.05847 0.08475,-0.08992 0.02753,-0.02887 0.05538,-0.05754 0.08527,-0.08888 0.02763,-0.0288 0.05528,-0.05816 0.08527,-0.0894 0.02774,-0.02873 0.05571,-0.05723 0.08578,-0.08837 0.02784,-0.02865 0.05562,-0.05785 0.08578,-0.08888 0.02795,-0.02857 0.05604,-0.05692 0.0863,-0.08785 0.02805,-0.0285 0.05646,-0.05754 0.08682,-0.08837 0.02815,-0.02842 0.05637,-0.0566 0.08682,-0.08733 0.02825,-0.02834 0.05679,-0.05722 0.08733,-0.08785 0.02836,-0.02826 0.05669,-0.05629 0.08733,-0.08682 0.02846,-0.02818 0.05712,-0.05639 0.08785,-0.08682 0.02856,-0.0281 0.05702,-0.05649 0.08785,-0.08682 0.02866,-0.02802 0.05744,-0.05607 0.08837,-0.0863 0.02876,-0.02793 0.05786,-0.05618 0.08888,-0.0863 0.02886,-0.02785 0.05776,-0.05576 0.08888,-0.08578 0.02896,-0.02776 0.05767,-0.05535 0.08888,-0.08527 0.02906,-0.02768 0.0586,-0.05545 0.08992,-0.08527 0.02916,-0.02759 0.05799,-0.05503 0.0894,-0.08475 0.02926,-0.02751 0.05892,-0.05514 0.09043,-0.08475 0.02936,-0.02742 0.05831,-0.05472 0.08992,-0.08423 0.02946,-0.02733 0.05924,-0.05483 0.09095,-0.08423 0.02956,-0.02724 0.05914,-0.05441 0.09095,-0.08372 0.02966,-0.02716 0.05905,-0.05452 0.09095,-0.08371 0.02976,-0.02707 0.05998,-0.0541 0.09198,-0.0832 0.02986,-0.02698 0.05937,-0.05421 0.09147,-0.0832 0.02996,-0.02689 0.0603,-0.0538 0.0925,-0.08268 0.03006,-0.0268 0.05969,-0.05338 0.09198,-0.08216 0.03016,-0.02671 0.06062,-0.05349 0.09302,-0.08217 0.03026,-0.02662 0.06053,-0.05308 0.09302,-0.08165 0.03037,-0.02653 0.06043,-0.05318 0.09302,-0.08165 0.03046,-0.02643 0.06085,-0.05278 0.09353,-0.08113 0.03057,-0.02634 0.06127,-0.05237 0.09405,-0.08062 0.03067,-0.02625 0.06117,-0.05247 0.09405,-0.08061 0.03077,-0.02616 0.06159,-0.05259 0.09457,-0.08062 0.03087,-0.02607 0.06149,-0.05218 0.09457,-0.0801 0.03097,-0.02597 0.06191,-0.05177 0.09508,-0.07958 0.03108,-0.02588 0.06233,-0.05136 0.0956,-0.07906 0.03118,-0.02579 0.06224,-0.05148 0.0956,-0.07906 0.03128,-0.02569 0.06214,-0.05159 0.0956,-0.07906 0.03139,-0.0256 0.06308,-0.05118 0.09663,-0.07855 0.03149,-0.02551 0.06247,-0.05078 0.09612,-0.07803 0.0316,-0.02542 0.06341,-0.0509 0.09715,-0.07803 0.0317,-0.02532 0.06332,-0.05049 0.09715,-0.07751 0.03181,-0.02523 0.06322,-0.05009 0.09715,-0.077 0.03192,-0.02513 0.06365,-0.05021 0.09767,-0.077 0.03202,-0.02504 0.06408,-0.04981 0.09819,-0.07648 0.03213,-0.02495 0.06399,-0.04993 0.09819,-0.07648 0.03224,-0.02486 0.0639,-0.04954 0.09819,-0.07596 0.03236,-0.02477 0.06484,-0.04914 0.09922,-0.07545 0.03247,-0.02468 0.06476,-0.04927 0.09922,-0.07545 0.03259,-0.02459 0.06468,-0.04888 0.09922,-0.07493 0.03271,-0.0245 0.06511,-0.04901 0.09974,-0.07493 0.03283,-0.02441 0.06555,-0.04862 0.100252,-0.07441 0.03295,-0.02433 0.06548,-0.04823 0.100252,-0.0739 0.03308,-0.02424 0.06541,-0.04837 0.100253,-0.0739 l 0.0987,-0.07131 c 0.0039,-0.0028 0.0074,-0.0055 0.01137,-0.0083 0.72045,-0.506813 1.44856,-0.981471 2.184363,-1.422136 0.726746,-0.435208 1.45854,-0.835706 2.195732,-1.20096 0.724729,-0.359058 1.451951,-0.682288 2.180745,-0.968416 0.735586,-0.288787 1.469729,-0.538588 2.201933,-0.748792 0.722,-0.207283 1.438255,-0.374786 2.146639,-0.503328 0.702968,-0.127585 1.394649,-0.216289 2.072225,-0.267684 0.67398,-0.05116 1.330377,-0.06527 1.966805,-0.04703 0.838652,-0.0012 1.648967,0.03235 2.422591,0.08992 0.876749,0.06524 1.715861,0.161724 2.506307,0.276986 0.0919,0.0134 0.171349,0.02726 0.259932,0.04082 -0.0476,-0.443185 -0.105208,-0.86421 -0.188102,-1.225248 -0.75772,-3.300186 -2.466216,-6.857038 -4.681368,-10.416935 z"
       id="path36" />
    <path
       style="opacity:1;fill:#000000;stroke:none;stroke-width:2.64584;stroke-opacity:1;paint-order:stroke fill markers"
       d="m 48.677648,13.967623 a 0.90819328,0.90819328 0 0 1 -0.001,5.16e-4 c -1.323159,0.265802 -2.714839,0.572609 -4.142383,0.929659 -1.229683,0.307583 -2.50594,0.657283 -3.805969,1.059367 -1.153122,0.356666 -2.337755,0.758471 -3.535702,1.213363 -1.097542,0.416775 -2.214901,0.881638 -3.335713,1.402498 -1.004109,0.466622 -2.017242,0.980935 -3.026172,1.549776 -0.936347,0.527894 -1.87315,1.105042 -2.797245,1.735812 -0.08085,0.05519 -0.162986,0.112001 -0.246497,0.170015 -0.08056,0.05597 -0.16256,0.112948 -0.245463,0.171566 -0.08024,0.05673 -0.161598,0.114909 -0.243913,0.17415 -0.07989,0.0575 -0.160627,0.116338 -0.242362,0.176216 -0.07953,0.05826 -0.159645,0.117236 -0.240812,0.177767 -0.07914,0.05902 -0.159181,0.11943 -0.238745,0.179834 -0.0269,0.02048 -0.05413,0.04109 -0.07958,0.06046 -0.02687,0.02058 -0.05421,0.04155 -0.07958,0.06098 -0.02683,0.02068 -0.05376,0.04148 -0.07906,0.06098 -0.02679,0.02077 -0.05383,0.04142 -0.07906,0.06098 -0.02676,0.02087 -0.0539,0.04239 -0.07906,0.06201 -0.02672,0.02096 -0.05346,0.04181 -0.07855,0.0615 -0.02667,0.02105 -0.05353,0.04227 -0.07855,0.06201 -0.02663,0.02115 -0.05359,0.04272 -0.07855,0.06253 -0.02659,0.02124 -0.05314,0.04265 -0.07803,0.06253 -0.02654,0.02133 -0.05321,0.04258 -0.07803,0.06253 -0.0265,0.02142 -0.05327,0.04303 -0.07803,0.06305 -0.02645,0.02152 -0.05334,0.04296 -0.07803,0.06304 -0.0264,0.02161 -0.05288,0.04341 -0.07751,0.06356 -0.02635,0.0217 -0.05295,0.04386 -0.07751,0.06408 -0.02631,0.02179 -0.05249,0.04327 -0.077,0.06356 -0.02626,0.02188 -0.05256,0.04423 -0.077,0.0646 l -0.06976,0.05839 c -0.654632,0.579298 -1.307301,1.166761 -1.955436,1.7632 -1.093059,1.005888 -2.172402,2.035705 -3.226677,3.094902 -0.963326,0.967853 -1.907225,1.962011 -2.823083,2.985347 -0.853489,0.953677 -1.683355,1.933635 -2.480469,2.94349 -0.148004,0.187507 -0.295228,0.376648 -0.441833,0.567407 -0.09695,0.126147 -0.193924,0.25348 -0.290422,0.381372 -0.09576,0.126913 -0.191053,0.254815 -0.286287,0.383439 -0.07091,0.09577 -0.141694,0.191993 -0.21239,0.288871 -0.07021,0.09621 -0.140365,0.192608 -0.210324,0.289905 -0.0695,0.09666 -0.139049,0.194255 -0.208256,0.291972 -0.06877,0.0971 -0.137345,0.194741 -0.205155,0.291972 -0.02306,0.03315 -0.04629,0.06616 -0.06821,0.09767 -0.02298,0.03321 -0.04586,0.06664 -0.0677,0.09819 -0.0229,0.03327 -0.04595,0.0666 -0.0677,0.09819 -0.02282,0.03332 -0.04553,0.06657 -0.06718,0.09819 -0.02273,0.03338 -0.04562,0.06705 -0.06718,0.0987 -0.02265,0.03344 -0.04519,0.06701 -0.06666,0.0987 -0.02257,0.03349 -0.04528,0.06697 -0.06666,0.0987 -0.02248,0.03355 -0.04486,0.06693 -0.06615,0.0987 -0.0224,0.03361 -0.04495,0.06741 -0.06615,0.09922 -0.02231,0.03367 -0.04452,0.06738 -0.06563,0.09922 -0.02223,0.03372 -0.04461,0.06734 -0.06563,0.09922 -0.02214,0.03378 -0.04419,0.06782 -0.06511,0.09973 -0.02205,0.03384 -0.04428,0.06778 -0.06511,0.09974 -0.02196,0.0339 -0.04386,0.06774 -0.0646,0.09974 -0.02188,0.03395 -0.04395,0.06822 -0.0646,0.100253 -0.02179,0.03401 -0.04353,0.06766 -0.06408,0.09973 -0.0217,0.03407 -0.04362,0.06814 -0.06408,0.100253 -0.02161,0.03413 -0.0432,0.06862 -0.06356,0.100769 -0.02152,0.03418 -0.04278,0.06806 -0.06305,0.100252 -0.02143,0.03424 -0.04288,0.06854 -0.06305,0.100769 -0.02133,0.0343 -0.04297,0.06902 -0.06304,0.101286 -0.02124,0.03436 -0.04255,0.06846 -0.06253,0.100769 -0.02115,0.03442 -0.04213,0.06894 -0.06201,0.101286 -0.02106,0.03448 -0.04223,0.0689 -0.06201,0.101285 -0.02096,0.03453 -0.04181,0.06938 -0.0615,0.101803 -0.02087,0.03459 -0.0419,0.06882 -0.06149,0.101286 -0.02077,0.03465 -0.04148,0.06929 -0.06098,0.101802 -0.02068,0.03471 -0.04107,0.06977 -0.06046,0.10232 -0.02058,0.03477 -0.04117,0.06922 -0.06046,0.101802 -0.02049,0.03483 -0.04127,0.06969 -0.06046,0.10232 -0.02039,0.03489 -0.04085,0.06965 -0.05995,0.102319 -0.02029,0.03495 -0.04043,0.07013 -0.05943,0.102836 -0.02019,0.03501 -0.04053,0.07009 -0.05943,0.102836 -0.0201,0.03507 -0.04012,0.07005 -0.05891,0.102836 -0.02,0.03512 -0.0397,0.07001 -0.05839,0.102836 -0.0199,0.03518 -0.0398,0.07048 -0.05839,0.103353 -0.0198,0.03525 -0.0399,0.07044 -0.0584,0.103353 -0.0197,0.03531 -0.03949,0.07092 -0.05788,0.10387 -0.0196,0.03537 -0.03908,0.07036 -0.05736,0.103353 -0.0195,0.03543 -0.03866,0.07084 -0.05684,0.103869 -0.01939,0.03549 -0.03876,0.07131 -0.05684,0.104387 -0.01929,0.03555 -0.03887,0.07075 -0.05685,0.103869 -0.01919,0.03561 -0.03846,0.07123 -0.05633,0.104387 -0.01909,0.03567 -0.03804,0.07119 -0.05581,0.104386 -0.01898,0.03573 -0.03763,0.07166 -0.05529,0.104903 -0.01888,0.03579 -0.03774,0.07162 -0.05529,0.104903 -0.01877,0.03585 -0.03784,0.07158 -0.05529,0.104903 -0.018666,0.03592 -0.036916,0.07154 -0.05426,0.104904 -0.018561,0.03598 -0.03754,0.07202 -0.054777,0.105419 -0.018455,0.03604 -0.036613,0.07198 -0.053743,0.10542 -0.018348,0.0361 -0.036721,0.07193 -0.053744,0.10542 -0.018241,0.03617 -0.036312,0.07241 -0.053227,0.105937 -0.018133,0.03623 -0.03642,0.07237 -0.053227,0.105937 -0.018025,0.03629 -0.036012,0.07284 -0.05271,0.106453 -0.017916,0.03636 -0.035604,0.07228 -0.052193,0.105937 -0.017807,0.03642 -0.035714,0.07276 -0.052193,0.106453 -0.017698,0.03649 -0.035307,0.07323 -0.051676,0.10697 -0.017587,0.03655 -0.034901,0.07268 -0.05116,0.106454 -0.017477,0.03661 -0.035012,0.07315 -0.05116,0.10697 -0.017366,0.03668 -0.034606,0.07311 -0.050643,0.10697 -0.017255,0.03675 -0.034718,0.07359 -0.050643,0.107487 -0.017144,0.03681 -0.034313,0.07354 -0.050126,0.107487 -0.017031,0.03688 -0.033909,0.0735 -0.049609,0.107487 -0.016919,0.03694 -0.033505,0.07398 -0.049093,0.108004 -0.016806,0.03701 -0.033619,0.07394 -0.049093,0.108004 -0.016692,0.03708 -0.033733,0.0739 -0.049093,0.108004 -0.016578,0.03714 -0.032813,0.07386 -0.048059,0.108003 -0.016464,0.03721 -0.032929,0.07433 -0.048059,0.108521 -0.01635,0.03728 -0.032527,0.07429 -0.047542,0.10852 -0.016234,0.03735 -0.032643,0.07477 -0.047542,0.109038 -0.016119,0.03742 -0.031726,0.07473 -0.046509,0.109037 -0.016003,0.03749 -0.03236,0.07469 -0.047026,0.109037 -0.015887,0.03756 -0.031444,0.07517 -0.045992,0.109554 -0.015771,0.03764 -0.031562,0.07462 -0.045992,0.109037 -0.015654,0.03771 -0.031163,0.07561 -0.045475,0.110071 -0.015538,0.03778 -0.030766,0.07506 -0.044958,0.109554 -0.01542,0.03786 -0.030886,0.07554 -0.044958,0.110071 -0.015303,0.03793 -0.030489,0.0755 -0.044442,0.110071 -0.015186,0.03801 -0.030611,0.07598 -0.044442,0.110587 -0.015068,0.03809 -0.029699,0.07595 -0.043408,0.110588 -0.01495,0.03817 -0.029822,0.07592 -0.043408,0.110588 -0.014832,0.03825 -0.029429,0.07589 -0.042891,0.110587 -0.014715,0.03833 -0.029554,0.07637 -0.042891,0.111104 -0.014597,0.03842 -0.029162,0.07686 -0.042375,0.111622 -0.01448,0.0385 -0.028772,0.07632 -0.041858,0.111104 -0.014363,0.0386 -0.028384,0.07682 -0.041341,0.111621 -0.014246,0.03869 -0.028513,0.0768 -0.041341,0.111621 -0.014131,0.03879 -0.028127,0.0773 -0.040824,0.112138 -0.014016,0.03889 -0.027743,0.07729 -0.040308,0.112138 -0.013903,0.039 -0.027361,0.07728 -0.039791,0.112138 -0.013791,0.03912 -0.027499,0.0778 -0.039791,0.112654 -0.013681,0.03925 -0.027123,0.07781 -0.039274,0.112655 -0.013575,0.03939 -0.026751,0.07784 -0.038757,0.112654 -0.013473,0.03954 -0.026901,0.07839 -0.038757,0.113172 -0.013377,0.03972 -0.026025,0.07845 -0.037724,0.113171 -0.013289,0.03992 -0.026708,0.07854 -0.03824,0.113172 -0.013214,0.04017 -0.025854,0.07919 -0.037207,0.113688 -0.013159,0.04048 -0.025538,0.07939 -0.03669,0.113688 -0.013135,0.04091 -0.025772,0.0797 -0.03669,0.113688 -0.013172,0.04153 -0.025551,0.08073 -0.036174,0.114205 -0.013338,0.04258 -0.025463,0.08168 -0.035657,0.114205 -0.013881,0.04488 -0.026278,0.08442 -0.035657,0.114722 l -0.00362,0.01188 c -0.012082,0.03957 -0.02293,0.07472 -0.031523,0.102836 -0.014255,0.04729 -0.02588,0.08574 -0.034623,0.114722 l -0.03514,0.118339 a 0.90819328,0.90819328 0 0 1 -0.3374471,0.468705 c 1.6479511,4.61659 4.4559073,8.674594 8.0656573,11.840104 0.0016,-0.0051 0.0031,-0.0093 0.0047,-0.01447 0.02284,-0.07365 0.04647,-0.149756 0.07183,-0.231511 0.02323,-0.07371 0.04666,-0.148988 0.07235,-0.230476 0.02361,-0.07375 0.04788,-0.149234 0.0739,-0.230477 0.02398,-0.07376 0.04858,-0.149463 0.07493,-0.230477 l 0.05426,-0.163815 c 0.0067,-0.02036 0.0135,-0.04082 0.0217,-0.06563 0.02417,-0.07209 0.04942,-0.147727 0.077,-0.22996 0.02467,-0.07248 0.05025,-0.147302 0.07803,-0.228926 0.02512,-0.07275 0.05103,-0.147781 0.07906,-0.228927 0.02555,-0.07292 0.05179,-0.148177 0.0801,-0.228927 0.02596,-0.07304 0.05254,-0.147481 0.08113,-0.227893 0.02636,-0.07311 0.05327,-0.14778 0.08217,-0.227893 0.02675,-0.07315 0.05399,-0.148049 0.0832,-0.227893 0.02712,-0.07316 0.05471,-0.147779 0.08423,-0.227376 0.02749,-0.07315 0.05542,-0.147492 0.08527,-0.22686 0.02786,-0.07313 0.05614,-0.147192 0.0863,-0.226342 0.02822,-0.0731 0.05684,-0.147399 0.08733,-0.226343 0.02858,-0.07305 0.05755,-0.147081 0.08837,-0.225826 0.02893,-0.07299 0.05825,-0.146755 0.0894,-0.225309 0.02929,-0.07293 0.05895,-0.146425 0.09043,-0.224793 0.02963,-0.07286 0.05966,-0.146607 0.09147,-0.224792 0.02998,-0.07278 0.06036,-0.14627 0.0925,-0.224276 0.03032,-0.0727 0.06106,-0.146445 0.09353,-0.224276 0.03066,-0.07261 0.06124,-0.145585 0.09405,-0.223242 0.03101,-0.07251 0.06246,-0.145758 0.0956,-0.223242 0.03134,-0.07242 0.06316,-0.145412 0.09663,-0.222726 0.03168,-0.07231 0.06335,-0.145064 0.09715,-0.222208 0.03201,-0.07221 0.06457,-0.145234 0.0987,-0.222209 0.03235,-0.0721 0.06475,-0.144885 0.09922,-0.221692 0.03268,-0.07199 0.06546,-0.144537 0.100253,-0.221175 0.03301,-0.07188 0.06616,-0.144188 0.101286,-0.220658 0.03334,-0.07176 0.06686,-0.143838 0.102319,-0.220142 0.03366,-0.07164 0.06757,-0.143491 0.103353,-0.219625 0.03399,-0.07152 0.06827,-0.143658 0.104386,-0.219624 0.03431,-0.07139 0.06898,-0.143312 0.10542,-0.219109 0.03464,-0.07126 0.06917,-0.142964 0.105937,-0.218591 0.03496,-0.07113 0.07039,-0.142617 0.107487,-0.218074 0.03528,-0.071 0.07059,-0.142271 0.108003,-0.217558 0.0356,-0.07087 0.07129,-0.141925 0.109038,-0.217041 0.03592,-0.07073 0.072,-0.142095 0.110071,-0.217041 0.03623,-0.07059 0.07271,-0.141236 0.111104,-0.216008 0.03655,-0.07045 0.07343,-0.141409 0.112138,-0.216007 0.03687,-0.07031 0.07362,-0.141068 0.112654,-0.215491 0.03718,-0.07017 0.07485,-0.140726 0.114205,-0.214974 0.03749,-0.07002 0.07505,-0.140383 0.114722,-0.214457 0.0378,-0.06987 0.07576,-0.140047 0.115755,-0.21394 0.03812,-0.06972 0.07648,-0.139705 0.116789,-0.213424 0.03843,-0.06957 0.07668,-0.139369 0.117305,-0.212907 0.03874,-0.06942 0.07791,-0.139033 0.118856,-0.21239 0.03904,-0.06926 0.07812,-0.138698 0.119373,-0.211874 0.03935,-0.0691 0.07883,-0.138363 0.120406,-0.211356 0.03965,-0.06895 0.07955,-0.13803 0.121439,-0.21084 0.03996,-0.06878 0.07976,-0.137696 0.121957,-0.210323 0.04026,-0.06862 0.081,-0.137884 0.123506,-0.210323 0.04056,-0.06846 0.0812,-0.137037 0.124024,-0.20929 0.04087,-0.06829 0.08193,-0.136708 0.125057,-0.208772 0.04117,-0.06813 0.08213,-0.13638 0.125574,-0.208256 0.04146,-0.06796 0.08338,-0.136056 0.127124,-0.20774 0.04176,-0.06779 0.08358,-0.13573 0.12764,-0.207222 0.04206,-0.06761 0.08431,-0.135404 0.128675,-0.206706 0.04235,-0.06744 0.08452,-0.135083 0.129191,-0.206189 0.04265,-0.06726 0.08577,-0.134763 0.130741,-0.205672 0.04294,-0.06709 0.08598,-0.134443 0.131258,-0.205156 0.04324,-0.06691 0.0862,-0.134124 0.131775,-0.204638 0.04353,-0.06673 0.08744,-0.133288 0.133325,-0.203605 0.04382,-0.06655 0.08766,-0.133491 0.133842,-0.203605 0.04411,-0.06636 0.08839,-0.132659 0.134876,-0.202572 0.0444,-0.06618 0.08861,-0.132862 0.135392,-0.202572 0.04469,-0.06599 0.08986,-0.132031 0.136943,-0.201538 0.04497,-0.0658 0.08957,-0.131722 0.136942,-0.201021 0.04526,-0.06561 0.09082,-0.131412 0.138493,-0.200505 0.04555,-0.06542 0.09104,-0.130584 0.13901,-0.199471 0.04583,-0.06523 0.09178,-0.130796 0.140043,-0.199471 0.04611,-0.06503 0.09252,-0.129974 0.141076,-0.198437 0.0464,-0.06484 0.09275,-0.130187 0.141594,-0.198438 0.04668,-0.06464 0.09349,-0.129367 0.142627,-0.197404 0.04696,-0.06444 0.09423,-0.129062 0.14366,-0.196887 0.04724,-0.06424 0.09445,-0.128247 0.144178,-0.195854 0.04751,-0.06404 0.0952,-0.128466 0.14521,-0.195853 0.04779,-0.06383 0.09543,-0.127652 0.145728,-0.19482 0.04807,-0.06363 0.09617,-0.127353 0.146761,-0.194304 0.04834,-0.06342 0.09692,-0.127059 0.147795,-0.193786 0.04862,-0.06321 0.09715,-0.12625 0.148311,-0.192753 0.04889,-0.063 0.0979,-0.125958 0.149345,-0.192237 0.04916,-0.06279 0.09865,-0.125667 0.150378,-0.191719 0.04944,-0.06258 0.09889,-0.125378 0.150895,-0.191203 0.0497,-0.06237 0.09912,-0.125088 0.151412,-0.190686 0.04997,-0.06215 0.100392,-0.124286 0.152963,-0.189653 0.05024,-0.06193 0.100111,-0.124001 0.152962,-0.189135 0.05051,-0.06171 0.10138,-0.123198 0.154512,-0.188103 0.05077,-0.06149 0.101621,-0.123433 0.15503,-0.188102 0.05104,-0.06127 0.101858,-0.122634 0.155546,-0.187069 0.0513,-0.06105 0.102619,-0.121841 0.156579,-0.186035 0.05157,-0.06082 0.103376,-0.121562 0.157613,-0.185518 0.05183,-0.0606 0.103617,-0.121283 0.15813,-0.185002 0.05209,-0.06037 0.104378,-0.121009 0.159164,-0.184485 0.05235,-0.06014 0.104622,-0.120219 0.15968,-0.183451 0.05261,-0.05991 0.105384,-0.119946 0.160714,-0.182934 0.05287,-0.05968 0.105627,-0.119673 0.16123,-0.182418 0.05313,-0.05944 0.106393,-0.118888 0.162264,-0.181385 0.05339,-0.05921 0.107156,-0.1181 0.163298,-0.18035 0.05364,-0.05897 0.106889,-0.118353 0.163297,-0.180351 0.0539,-0.05873 0.108174,-0.117571 0.164848,-0.179317 0.05415,-0.0585 0.108424,-0.11679 0.165364,-0.178284 0.0544,-0.05825 0.108674,-0.116526 0.165882,-0.177767 0.05466,-0.05801 0.109444,-0.116266 0.166915,-0.17725 0.05491,-0.05777 0.109697,-0.11549 0.167431,-0.176217 0.05516,-0.05752 0.110469,-0.115231 0.168465,-0.1757 0.05541,-0.05727 0.110722,-0.114456 0.168982,-0.174666 0.05566,-0.05703 0.111494,-0.1142 0.170016,-0.174149 0.0559,-0.05678 0.111754,-0.113433 0.170532,-0.173116 0.05615,-0.05652 0.112528,-0.113179 0.171566,-0.1726 0.05639,-0.05627 0.112786,-0.112411 0.172082,-0.171566 0.05664,-0.05602 0.113044,-0.112159 0.1726,-0.171049 0.05688,-0.05576 0.11382,-0.111394 0.173632,-0.170015 0.05712,-0.0555 0.114083,-0.111148 0.17415,-0.169499 0.05736,-0.05524 0.114864,-0.110388 0.175183,-0.168465 0.0576,-0.05498 0.115124,-0.110141 0.1757,-0.167948 0.05784,-0.05472 0.115907,-0.109384 0.176733,-0.166915 0.05808,-0.05446 0.116172,-0.108627 0.177251,-0.165881 0.05832,-0.05419 0.116439,-0.108389 0.177766,-0.165365 0.05856,-0.05393 0.117223,-0.10815 0.178801,-0.164848 0.05879,-0.05366 0.11749,-0.107397 0.179317,-0.163814 0.05903,-0.05339 0.118275,-0.106645 0.180351,-0.162781 0.05926,-0.05312 0.118545,-0.106412 0.180867,-0.162264 0.05949,-0.05285 0.118816,-0.105663 0.181385,-0.16123 0.05973,-0.05257 0.119602,-0.104915 0.182417,-0.160197 0.05996,-0.0523 0.119877,-0.104687 0.182935,-0.15968 0.06019,-0.05202 0.120666,-0.103943 0.183968,-0.158647 0.06041,-0.05174 0.120424,-0.103717 0.183968,-0.15813 0.06064,-0.05147 0.121215,-0.102975 0.185002,-0.157096 0.06087,-0.05118 0.122007,-0.102235 0.186035,-0.156063 0.0611,-0.0509 0.122285,-0.102015 0.186552,-0.155546 0.06132,-0.05062 0.122562,-0.101278 0.187069,-0.154513 0.06154,-0.05033 0.122839,-0.10054 0.187585,-0.153479 0.06177,-0.05005 0.123636,-0.09981 0.188619,-0.152445 0.06199,-0.04976 0.123917,-0.09959 0.189136,-0.151929 0.06221,-0.04947 0.124717,-0.09886 0.190169,-0.150895 0.06243,-0.04918 0.124482,-0.09865 0.190169,-0.150379 0.06265,-0.04888 0.125282,-0.09741 0.191203,-0.148828 0.06287,-0.04859 0.12608,-0.09719 0.192236,-0.148311 0.06309,-0.04829 0.125853,-0.09647 0.192237,-0.147278 0.0633,-0.048 0.126654,-0.09626 0.19327,-0.146761 0.06352,-0.0477 0.126938,-0.09554 0.193786,-0.145727 0.06373,-0.0474 0.127745,-0.09431 0.19482,-0.144178 0.06395,-0.0471 0.127515,-0.09462 0.194821,-0.144177 0.06416,-0.04679 0.128323,-0.09339 0.195853,-0.142627 0.06437,-0.04649 0.128615,-0.09267 0.196371,-0.141593 0.06458,-0.04618 0.129421,-0.09247 0.197404,-0.141077 0.06479,-0.04588 0.129714,-0.09176 0.19792,-0.140043 0.065,-0.04557 0.130007,-0.09105 0.198438,-0.13901 0.06521,-0.04526 0.130305,-0.09086 0.198954,-0.138493 0.06542,-0.04495 0.1306,-0.08964 0.199471,-0.136942 0.06562,-0.04463 0.131413,-0.08945 0.200505,-0.136426 0.06583,-0.04432 0.131191,-0.08822 0.200504,-0.134875 0.06603,-0.044 0.132006,-0.08804 0.201538,-0.134359 0.06624,-0.04368 0.132824,-0.08734 0.202572,-0.133325 0.06644,-0.04337 0.132608,-0.08664 0.202572,-0.132292 0.06664,-0.04305 0.133425,-0.08646 0.203605,-0.131775 0.06684,-0.04272 0.133725,-0.08524 0.204122,-0.130224 0.06704,-0.0424 0.133515,-0.08455 0.204122,-0.129192 0.06724,-0.04208 0.134851,-0.08437 0.205672,-0.128674 0.06744,-0.04175 0.13464,-0.08316 0.205672,-0.127124 0.06764,-0.04142 0.134946,-0.08299 0.206189,-0.126607 0.06783,-0.04109 0.135767,-0.0823 0.207222,-0.125574 0.06803,-0.04076 0.136077,-0.08109 0.20774,-0.124023 0.06822,-0.04043 0.136386,-0.08093 0.208256,-0.123507 0.06841,-0.0401 0.136694,-0.08024 0.208772,-0.122473 0.06861,-0.03976 0.137006,-0.07956 0.20929,-0.12144 0.0688,-0.03943 0.137833,-0.07888 0.210323,-0.120406 0.06899,-0.03909 0.137631,-0.0782 0.210323,-0.119372 0.06918,-0.03875 0.138463,-0.07752 0.211357,-0.118339 0.06937,-0.03841 0.138261,-0.07633 0.211356,-0.116789 0.06955,-0.03807 0.139092,-0.07617 0.21239,-0.116272 0.06974,-0.03772 0.139408,-0.0755 0.212907,-0.115239 0.06992,-0.03738 0.139728,-0.07483 0.213424,-0.114204 0.07011,-0.03703 0.140048,-0.07364 0.21394,-0.112655 0.0703,-0.03668 0.140885,-0.07349 0.214974,-0.112138 0.07048,-0.03633 0.140686,-0.07282 0.214974,-0.111104 0.07066,-0.03598 0.141012,-0.07164 0.215491,-0.109554 0.07084,-0.03563 0.141851,-0.07149 0.216524,-0.109038 0.07102,-0.03528 0.141655,-0.07031 0.216525,-0.107487 0.0712,-0.03492 0.142499,-0.06966 0.217557,-0.106453 0.07138,-0.03456 0.142824,-0.069 0.218075,-0.10542 0.07156,-0.03421 0.142636,-0.06834 0.218074,-0.104386 0.07174,-0.03385 0.143483,-0.06769 0.219109,-0.103353 0.07191,-0.03348 0.143811,-0.06703 0.219624,-0.10232 0.07209,-0.03312 0.14414,-0.06638 0.220142,-0.101285 0.07226,-0.03276 0.143957,-0.06521 0.220142,-0.09974 0.07244,-0.03239 0.144807,-0.06456 0.221175,-0.0987 0.07261,-0.03203 0.145141,-0.06392 0.221692,-0.09767 0.07278,-0.03166 0.145473,-0.06327 0.222208,-0.09664 0.07295,-0.03129 0.145814,-0.06263 0.222726,-0.0956 0.07312,-0.03092 0.14615,-0.06199 0.223242,-0.09457 0.07329,-0.03055 0.145972,-0.06083 0.223242,-0.09302 0.07346,-0.03017 0.146826,-0.06019 0.224276,-0.09198 0.07363,-0.02979 0.14717,-0.05955 0.224792,-0.09095 0.0738,-0.02942 0.147512,-0.05892 0.225309,-0.08992 0.07397,-0.02904 0.147856,-0.05777 0.225826,-0.08837 0.07413,-0.02866 0.147683,-0.05714 0.225826,-0.08733 0.0743,-0.02828 0.148543,-0.0565 0.22686,-0.0863 0.07446,-0.02789 0.148892,-0.05588 0.227376,-0.08527 0.07462,-0.02751 0.148725,-0.05525 0.227377,-0.08423 0.07478,-0.02712 0.149588,-0.05411 0.228409,-0.08268 0.07495,-0.02674 0.149425,-0.05297 0.22841,-0.08113 0.07511,-0.02635 0.150294,-0.05286 0.229444,-0.08062 0.07527,-0.02596 0.150131,-0.05172 0.229443,-0.07906 0.07543,-0.02557 0.150483,-0.0511 0.22996,-0.07803 0.07559,-0.02517 0.150842,-0.05049 0.230477,-0.077 0.07575,-0.02478 0.1512,-0.04936 0.230994,-0.07545 0.0759,-0.02439 0.151557,-0.04874 0.23151,-0.07441 0.07606,-0.02399 0.15192,-0.04761 0.232027,-0.07286 0.07622,-0.02359 0.152283,-0.047 0.232544,-0.07183 0.07638,-0.02319 0.15213,-0.0464 0.232544,-0.0708 0.07653,-0.02279 0.153009,-0.04579 0.233578,-0.06976 0.07668,-0.02238 0.152861,-0.04467 0.233577,-0.06821 0.07684,-0.02198 0.153231,-0.04355 0.234094,-0.06666 0.077,-0.02157 0.153601,-0.04294 0.234611,-0.06563 0.07715,-0.02117 0.153973,-0.04234 0.235128,-0.0646 0.07731,-0.02076 0.154347,-0.04174 0.235645,-0.06356 0.07746,-0.02035 0.154722,-0.04012 0.236161,-0.0615 0.07761,-0.01994 0.154581,-0.04004 0.236161,-0.06098 0.07777,-0.01953 0.154965,-0.03893 0.236678,-0.05943 0.07792,-0.01911 0.155343,-0.03833 0.237195,-0.0584 0.07807,-0.0187 0.155731,-0.03723 0.237712,-0.05684 0.07823,-0.01828 0.156116,-0.03612 0.238228,-0.05529 0.07838,-0.01786 0.156505,-0.03554 0.238745,-0.05426 0.07854,-0.01744 0.15638,-0.03495 0.238745,-0.05323 0.07869,-0.01702 0.156775,-0.03385 0.239262,-0.05168 0.07885,-0.0166 0.157172,-0.03327 0.239779,-0.05064 0.07901,-0.01617 0.157055,-0.03217 0.239778,-0.04909 0.07916,-0.01575 0.157976,-0.03108 0.240813,-0.04754 0.07932,-0.01532 0.157866,-0.0305 0.240812,-0.04651 0.07949,-0.01489 0.158278,-0.02993 0.241329,-0.04547 0.07965,-0.01446 0.158693,-0.02884 0.241845,-0.04392 0.07982,-0.01403 0.158598,-0.02775 0.241846,-0.04237 0.07999,-0.0136 0.15954,-0.02718 0.242879,-0.04134 0.08016,-0.01317 0.159456,-0.0261 0.242879,-0.03979 0.08034,-0.01274 0.159379,-0.02553 0.24288,-0.03876 0.08052,-0.0123 0.160342,-0.02445 0.243912,-0.03721 0.02293,-0.0034 0.04638,-0.007 0.06925,-0.01033 -2.217601,-3.331485 -4.804043,-6.632443 -7.447091,-9.690881 z"
       id="path35" />
    <path
       style="opacity:1;fill:#000000;stroke:none;stroke-width:2.64584;stroke-opacity:1;paint-order:stroke fill markers"
       d="M 33.455839,0 C 32.497247,0.00708628 31.541133,0.35263047 30.827059,1.0350789 24.481733,7.0993868 8.5982694,23.277923 5.8156656,35.754923 c -0.4292183,1.924585 -0.4423912,5.154505 -0.197404,7.113778 0.1386914,1.109172 0.3509653,2.194569 0.6170166,3.258715 0.0059,-0.01675 0.011287,-0.03231 0.01757,-0.05013 0.013488,-0.03784 0.02689,-0.07636 0.041858,-0.118339 0.01363,-0.03782 0.027803,-0.07648 0.042891,-0.118339 0.01377,-0.0378 0.027681,-0.07608 0.042891,-0.117822 0.013908,-0.03777 0.028075,-0.07568 0.043408,-0.117306 0.014045,-0.03774 0.027951,-0.07578 0.043408,-0.117305 0.01418,-0.03771 0.028861,-0.07589 0.044442,-0.117306 0.014313,-0.03767 0.028737,-0.07599 0.044442,-0.117305 0.014445,-0.03763 0.028613,-0.07557 0.044442,-0.116789 0.014577,-0.03759 0.029523,-0.07567 0.045475,-0.116789 0.014706,-0.03754 0.029398,-0.07524 0.045475,-0.116271 0.014836,-0.0375 0.029791,-0.07534 0.045992,-0.116272 0.014964,-0.03745 0.030184,-0.07491 0.046509,-0.115756 0.015091,-0.0374 0.030061,-0.07552 0.046509,-0.116272 0.015218,-0.03736 0.030971,-0.07457 0.047542,-0.115238 0.015343,-0.03731 0.030332,-0.07518 0.047025,-0.115755 0.015468,-0.03726 0.031243,-0.07475 0.048059,-0.115239 0.015592,-0.03721 0.031121,-0.07431 0.048059,-0.114721 0.015716,-0.03716 0.031516,-0.07492 0.048576,-0.115239 0.015839,-0.03711 0.031911,-0.07397 0.049093,-0.114205 0.015961,-0.03705 0.031791,-0.07457 0.049093,-0.114721 0.016082,-0.037 0.032704,-0.07413 0.050126,-0.114205 0.016203,-0.03695 0.032067,-0.07422 0.049609,-0.114205 0.016323,-0.03689 0.032981,-0.07378 0.050643,-0.113688 0.016443,-0.03684 0.032863,-0.07386 0.050643,-0.113689 0.016562,-0.03679 0.033261,-0.07343 0.05116,-0.113171 0.01668,-0.03673 0.033143,-0.07402 0.05116,-0.113688 0.016798,-0.03668 0.03406,-0.07307 0.052193,-0.112655 0.016915,-0.03663 0.033943,-0.07366 0.052193,-0.113171 0.017032,-0.03657 0.033827,-0.07323 0.052193,-0.112655 0.017148,-0.03652 0.034228,-0.07331 0.05271,-0.112654 0.017264,-0.03646 0.03463,-0.07287 0.053227,-0.112138 0.017378,-0.03641 0.035031,-0.07295 0.053744,-0.112138 0.017492,-0.03635 0.034918,-0.07303 0.053743,-0.112138 0.017607,-0.0363 0.035321,-0.07259 0.05426,-0.111621 0.01772,-0.03624 0.035208,-0.07266 0.05426,-0.111621 0.017833,-0.03619 0.03613,-0.07223 0.055294,-0.111104 0.017945,-0.03613 0.035501,-0.0723 0.054777,-0.111105 0.018057,-0.03608 0.036424,-0.07238 0.055811,-0.111104 0.018168,-0.03602 0.036314,-0.07194 0.05581,-0.110588 0.018279,-0.03597 0.03672,-0.07202 0.056327,-0.110587 0.018389,-0.03591 0.036611,-0.07209 0.056327,-0.110588 0.018498,-0.03586 0.037019,-0.07165 0.056844,-0.110071 0.018608,-0.0358 0.037427,-0.07173 0.057361,-0.11007 0.018716,-0.03575 0.03732,-0.07129 0.057361,-0.109554 0.018824,-0.03569 0.03773,-0.07188 0.057878,-0.110071 0.018932,-0.03564 0.03814,-0.07092 0.058394,-0.109037 0.019039,-0.03558 0.038035,-0.07151 0.058394,-0.109555 0.019146,-0.03553 0.037929,-0.07107 0.058394,-0.109037 0.019251,-0.03547 0.038858,-0.07114 0.059428,-0.109037 0.019357,-0.03542 0.038755,-0.0707 0.059428,-0.108521 0.019462,-0.03537 0.038651,-0.07077 0.059428,-0.10852 0.019567,-0.03531 0.039065,-0.07033 0.059945,-0.108004 0.019671,-0.03526 0.03948,-0.07092 0.060461,-0.10852 0.019774,-0.0352 0.039895,-0.07048 0.060978,-0.108004 0.019877,-0.03515 0.039794,-0.07004 0.060978,-0.107487 0.01998,-0.0351 0.039694,-0.07011 0.060978,-0.107487 0.020082,-0.03504 0.040111,-0.07018 0.061495,-0.107487 0.020184,-0.03499 0.040528,-0.07025 0.062012,-0.107487 0.020285,-0.03493 0.04043,-0.06981 0.062012,-0.10697 0.020385,-0.03488 0.040849,-0.06988 0.062528,-0.10697 0.020485,-0.03483 0.040752,-0.06944 0.062528,-0.106454 0.020585,-0.03477 0.041172,-0.06951 0.063045,-0.106453 0.020684,-0.03472 0.041592,-0.06958 0.063562,-0.106454 0.020783,-0.03467 0.041497,-0.06914 0.063562,-0.105936 0.020881,-0.03461 0.041919,-0.06921 0.064079,-0.105937 0.020979,-0.03456 0.041825,-0.06928 0.064079,-0.105937 0.021076,-0.03451 0.042248,-0.06884 0.064596,-0.10542 0.021173,-0.03446 0.042155,-0.06891 0.064596,-0.10542 0.021269,-0.0344 0.042579,-0.06898 0.065112,-0.10542 0.021365,-0.03435 0.043005,-0.06853 0.065629,-0.104903 0.02146,-0.0343 0.04291,-0.06861 0.06563,-0.104903 0.02156,-0.03425 0.04282,-0.06868 0.06563,-0.104903 0.02165,-0.03419 0.04325,-0.06823 0.06615,-0.104386 0.02174,-0.03414 0.04368,-0.0683 0.06666,-0.104387 0.02184,-0.03409 0.04359,-0.06785 0.06666,-0.103869 0.02193,-0.03404 0.0435,-0.06792 0.06666,-0.10387 0.02202,-0.03399 0.04445,-0.068 0.0677,-0.10387 0.02212,-0.03393 0.04384,-0.06807 0.06718,-0.103869 0.02221,-0.03388 0.04479,-0.06762 0.06821,-0.103353 0.0223,-0.03383 0.04419,-0.06769 0.0677,-0.103353 0.02239,-0.03378 0.04462,-0.06724 0.06821,-0.102836 0.02248,-0.03373 0.04505,-0.06783 0.06873,-0.103353 0.02257,-0.03368 0.04497,-0.06686 0.06873,-0.102319 0.02266,-0.03363 0.0454,-0.06745 0.06925,-0.102836 0.02275,-0.03358 0.04532,-0.067 0.06925,-0.10232 0.02284,-0.03353 0.04576,-0.06707 0.06976,-0.102319 0.02293,-0.03348 0.04567,-0.06663 0.06976,-0.101803 0.02301,-0.03343 0.04611,-0.06721 0.07028,-0.102319 0.0231,-0.03338 0.04603,-0.06625 0.07028,-0.101286 0.02319,-0.03334 0.04659,-0.06671 0.07028,-0.100769 0.07098,-0.101781 0.14214,-0.203209 0.213423,-0.303857 0.07173,-0.101285 0.143494,-0.201659 0.215491,-0.301791 0.07247,-0.100791 0.144866,-0.201144 0.217558,-0.300756 0.0732,-0.100303 0.146766,-0.200106 0.220141,-0.299207 0.09855,-0.133097 0.197088,-0.265127 0.296106,-0.396358 0.09978,-0.132237 0.200069,-0.263434 0.30024,-0.393775 0.151478,-0.197098 0.303524,-0.392454 0.456303,-0.58601 0.822592,-1.042133 1.676946,-2.051622 2.552816,-3.030306 0.939813,-1.050102 1.90612,-2.066864 2.889229,-3.054594 1.075906,-1.080929 2.174719,-2.129344 3.284038,-3.150195 0.660862,-0.608152 1.32518,-1.206509 1.990576,-1.79524 0.006,-0.0053 0.01191,-0.01084 0.01809,-0.01602 0.02646,-0.02219 0.05284,-0.04398 0.08113,-0.0677 0.02652,-0.0221 0.05331,-0.04409 0.08165,-0.0677 0.02659,-0.02202 0.05274,-0.04419 0.08113,-0.0677 0.02665,-0.02194 0.05321,-0.04377 0.08165,-0.06718 0.02671,-0.02186 0.05316,-0.04336 0.08165,-0.06666 0.02678,-0.02178 0.05363,-0.04346 0.08216,-0.06666 0.02684,-0.0217 0.05358,-0.04304 0.08217,-0.06615 0.02691,-0.02162 0.05354,-0.04314 0.08216,-0.06615 0.02697,-0.02155 0.0535,-0.04325 0.08217,-0.06615 0.02704,-0.02147 0.05397,-0.04283 0.08268,-0.06563 0.0271,-0.02139 0.05393,-0.04242 0.08268,-0.06511 0.02717,-0.02132 0.0544,-0.04252 0.0832,-0.06511 0.02724,-0.02124 0.05385,-0.04211 0.08268,-0.0646 0.02731,-0.02117 0.05484,-0.04222 0.08372,-0.0646 0.02738,-0.0211 0.05429,-0.04232 0.0832,-0.0646 0.02745,-0.02103 0.05477,-0.0414 0.08372,-0.06356 0.02753,-0.02096 0.05475,-0.04177 0.08268,-0.06304 0.08481,-0.06439 0.168423,-0.127576 0.251664,-0.189653 0.08537,-0.06366 0.170119,-0.126332 0.253731,-0.187585 0.08593,-0.06296 0.170799,-0.124572 0.254765,-0.185002 0.08651,-0.06226 0.17202,-0.123333 0.256315,-0.182935 0.08709,-0.06158 0.173267,-0.121581 0.257866,-0.18035 0.0877,-0.06092 0.174039,-0.120362 0.258899,-0.178284 0.969997,-0.662102 1.950952,-1.266044 2.92902,-1.81746 1.053829,-0.594156 2.10954,-1.130599 3.152779,-1.615405 1.164443,-0.541137 2.322135,-1.022528 3.45612,-1.453142 1.237703,-0.469988 2.459152,-0.884022 3.644221,-1.250569 1.336038,-0.413222 2.644297,-0.771755 3.901571,-1.086239 1.100064,-0.275143 2.165231,-0.51237 3.205489,-0.732255 C 42.979113,7.5543267 38.72981,3.4344382 36.100122,0.9963216 35.375702,0.32467604 34.414429,-0.00708629 33.455839,0 Z"
       id="path1" />
  </g>
</svg>
